SplineFontDB: 3.0
FontName: Untitled1
FullName: Untitled1
FamilyName: Untitled1
Weight: Regular
Copyright: Copyright (c) 2018, pcboby
UComments: "2018-9-13: Created with FontForge (http://fontforge.org)"
Version: 001.000
ItalicAngle: 0
UnderlinePosition: -100
UnderlineWidth: 50
Ascent: 800
Descent: 200
InvalidEm: 0
LayerCount: 2
Layer: 0 0 "Back" 1
Layer: 1 0 "Fore" 0
XUID: [1021 519 -2085699189 15099583]
StyleMap: 0x0000
FSType: 0
OS2Version: 0
OS2_WeightWidthSlopeOnly: 0
OS2_UseTypoMetrics: 1
CreationTime: 1536828836
ModificationTime: 1536829295
OS2TypoAscent: 0
OS2TypoAOffset: 1
OS2TypoDescent: 0
OS2TypoDOffset: 1
OS2TypoLinegap: 90
OS2WinAscent: 0
OS2WinAOffset: 1
OS2WinDescent: 0
OS2WinDOffset: 1
HheadAscent: 0
HheadAOffset: 1
HheadDescent: 0
HheadDOffset: 1
DEI: 91125
Encoding: ISO8859-1
UnicodeInterp: none
NameList: AGL For New Fonts
DisplaySize: -48
AntiAlias: 1
FitToEm: 0
WinInfo: 0 20 8
BeginChars: 256 22

StartChar: one
Encoding: 49 49 0
Width: 1000
VWidth: 0
HStem: -146.396 88.0156<0 996.932> 15.5342 69.8682<66.7044 193.857 437.068 564.221 811.945 935.302> 325.062 71.459<66.7047 193.857> 554.252 71.459<810.047 937.2> 732.899 67.1006<437.068 564.221>
VStem: 3.48535 48.8008<99.6473 310.818> 208.275 53.1582<99.6473 310.818> 374.721 47.9297<99.6473 718.654> 578.639 48.8008<99.6473 718.654> 745.956 49.6729<102.261 540.007> 951.618 48.7998<102.261 540.007>
LayerCount: 2
Fore
SplineSet
939.41796875 625.704101562 m 1
 939.416992188 625.704101562 l 2
 939.6640625 625.708007812 940.06640625 625.7109375 940.313476562 625.7109375 c 0
 973.504882812 625.7109375 1000.44335938 598.772460938 1000.44335938 565.581054688 c 0
 1000.44335938 565.098632812 1000.43164062 564.314453125 1000.41796875 563.83203125 c 2
 1000.41796875 74.951171875 l 2
 999.487304688 42.71875 972.559570312 16.5576171875 940.313476562 16.5576171875 c 0
 940.065429688 16.5576171875 939.6640625 16.560546875 939.416992188 16.564453125 c 2
 806.95703125 16.564453125 l 2
 806.709960938 16.560546875 806.30859375 16.5576171875 806.060546875 16.5576171875 c 0
 773.814453125 16.5576171875 746.887695312 42.71875 745.956054688 74.951171875 c 2
 745.956054688 567.317382812 l 2
 746.887695312 599.55078125 773.814453125 625.7109375 806.060546875 625.7109375 c 0
 806.30859375 625.7109375 806.709960938 625.708007812 806.95703125 625.704101562 c 2
 939.41796875 625.704101562 l 1
951.618164062 146.409179688 m 2
 951.618164062 495.858398438 l 2
 950.686523438 528.091796875 923.759765625 554.251953125 891.513671875 554.251953125 c 0
 891.265625 554.251953125 890.864257812 554.249023438 890.6171875 554.245117188 c 2
 856.630859375 554.245117188 l 2
 856.3828125 554.249023438 855.981445312 554.251953125 855.734375 554.251953125 c 0
 823.487304688 554.251953125 796.560546875 528.091796875 795.62890625 495.858398438 c 2
 795.62890625 146.409179688 l 2
 796.560546875 114.17578125 823.487304688 88.015625 855.734375 88.015625 c 0
 855.981445312 88.015625 856.3828125 88.0185546875 856.630859375 88.0224609375 c 2
 890.6171875 88.0224609375 l 2
 890.864257812 88.0185546875 891.265625 88.015625 891.513671875 88.015625 c 0
 923.759765625 88.015625 950.686523438 114.17578125 951.618164062 146.409179688 c 2
435.721679688 15.693359375 m 2
 435.479492188 15.689453125 435.0859375 15.6865234375 434.84375 15.6865234375 c 0
 401.65234375 15.6865234375 374.713867188 42.625 374.713867188 75.81640625 c 0
 374.713867188 76.05859375 374.716796875 76.4521484375 374.720703125 76.6943359375 c 2
 374.720703125 741.606445312 l 2
 375.651367188 773.83984375 402.579101562 800 434.825195312 800 c 0
 435.072265625 800 435.474609375 799.997070312 435.721679688 799.993164062 c 2
 566.439453125 799.993164062 l 2
 566.686523438 799.997070312 567.086914062 800 567.334960938 800 c 0
 599.581054688 800 626.5078125 773.83984375 627.439453125 741.606445312 c 2
 627.439453125 74.080078125 l 2
 626.5078125 41.8466796875 599.581054688 15.6865234375 567.334960938 15.6865234375 c 0
 567.086914062 15.6865234375 566.685546875 15.689453125 566.438476562 15.693359375 c 2
 435.721679688 15.693359375 l 2
422.650390625 674.505859375 m 2
 422.650390625 143.795898438 l 2
 423.581054688 111.5625 450.5078125 85.40234375 482.754882812 85.40234375 c 0
 483.001953125 85.40234375 483.404296875 85.4052734375 483.651367188 85.4091796875 c 2
 517.637695312 85.4091796875 l 2
 517.884765625 85.4052734375 518.287109375 85.40234375 518.534179688 85.40234375 c 0
 550.78125 85.40234375 577.708007812 111.5625 578.638671875 143.795898438 c 2
 578.638671875 674.505859375 l 2
 577.708007812 706.73828125 550.78125 732.899414062 518.534179688 732.899414062 c 0
 518.287109375 732.899414062 517.884765625 732.896484375 517.637695312 732.892578125 c 2
 483.651367188 732.892578125 l 2
 483.404296875 732.896484375 483.001953125 732.899414062 482.754882812 732.899414062 c 0
 450.5078125 732.899414062 423.581054688 706.73828125 422.650390625 674.505859375 c 2
64.4873046875 15.693359375 m 2
 64.244140625 15.689453125 63.8515625 15.6865234375 63.609375 15.6865234375 c 0
 30.4169921875 15.6865234375 3.4794921875 42.625 3.4794921875 75.81640625 c 0
 3.4794921875 76.05859375 3.482421875 76.4521484375 3.4853515625 76.6943359375 c 2
 3.4853515625 338.127929688 l 2
 4.4169921875 370.360351562 31.34375 396.521484375 63.5908203125 396.521484375 c 0
 63.837890625 396.521484375 64.2392578125 396.517578125 64.4873046875 396.514648438 c 2
 200.432617188 396.514648438 l 2
 200.6796875 396.517578125 201.081054688 396.521484375 201.329101562 396.521484375 c 0
 233.575195312 396.521484375 260.501953125 370.360351562 261.43359375 338.127929688 c 2
 261.43359375 76.6943359375 l 2
 261.438476562 76.41015625 261.442382812 75.9482421875 261.442382812 75.6640625 c 0
 261.442382812 42.47265625 234.50390625 15.5341796875 201.3125 15.5341796875 c 0
 200.10546875 15.5341796875 198.149414062 15.60546875 196.946289062 15.693359375 c 2
 64.4873046875 15.693359375 l 2
52.287109375 266.668945312 m 2
 52.2861328125 143.795898438 l 2
 53.2177734375 111.5625 80.14453125 85.40234375 112.390625 85.40234375 c 0
 112.638671875 85.40234375 113.040039062 85.4052734375 113.287109375 85.4091796875 c 2
 147.274414062 85.4091796875 l 2
 147.521484375 85.4052734375 147.922851562 85.40234375 148.170898438 85.40234375 c 0
 180.416992188 85.40234375 207.34375 111.5625 208.275390625 143.795898438 c 2
 208.275390625 266.668945312 l 2
 207.34375 298.90234375 180.416992188 325.0625 148.170898438 325.0625 c 0
 147.922851562 325.0625 147.521484375 325.059570312 147.274414062 325.055664062 c 2
 113.288085938 325.055664062 l 2
 113.040039062 325.059570312 112.638671875 325.0625 112.391601562 325.0625 c 0
 80.14453125 325.0625 53.2177734375 298.90234375 52.287109375 266.668945312 c 2
0 -58.3798828125 m 1
 996.931640625 -58.3798828125 l 1
 996.931640625 -146.395507812 l 1
 0 -146.395507812 l 1
 0 -58.3798828125 l 1
EndSplineSet
Validated: 524293
EndChar

StartChar: two
Encoding: 50 50 1
Width: 1000
VWidth: 0
HStem: 779.873 20G<488.529 488.529>
VStem: 228.792 190.513<508.49 609.733> 585.619 169.312<505.2 610.353>
LayerCount: 2
Fore
SplineSet
636.758789062 271.958984375 m 1
 853.639648438 247.868164062 l 1
 1000.44335938 -180.841796875 l 1
 643.5859375 -69.2177734375 l 1
 338.794921875 -173.940429688 l 1
 0 -63.0146484375 l 1
 155.525390625 306.284179688 l 1
 356.184570312 256.4375 l 1
 292.096679688 339.17578125 228.791992188 448.999023438 228.791992188 560.559570312 c 0
 228.791992188 786.580078125 488.529296875 799.873046875 488.529296875 799.873046875 c 1
 488.529296875 799.873046875 761.58984375 813.168945312 754.930664062 567.20703125 c 0
 751.8984375 455.192382812 696.333007812 351.727539062 636.758789062 271.958984375 c 1
383.385742188 222.759765625 m 1
 354.505859375 -138.611328125 l 1
 628.693359375 -44.4521484375 l 1
 613.821289062 242.471679688 l 1
 582.635742188 203.997070312 526.504882812 146.969726562 488.529296875 115.178710938 c 1
 457.276367188 142.688476562 410.171875 190.884765625 383.385742188 222.759765625 c 1
502.622070312 642.953125 m 0
 502.599609375 642.953125 502.564453125 642.953125 502.541992188 642.953125 c 0
 456.640625 642.953125 419.350585938 605.69921875 419.3046875 559.797851562 c 0
 419.3046875 559.797851562 419.3046875 559.795898438 419.3046875 559.795898438 c 0
 419.3046875 513.892578125 456.559570312 476.638671875 502.461914062 476.638671875 c 0
 548.365234375 476.638671875 585.619140625 513.892578125 585.619140625 559.795898438 c 0
 585.619140625 605.610351562 548.436523438 642.864257812 502.622070312 642.953125 c 0
172.20703125 273.034179688 m 1
 37.990234375 -45.6845703125 l 1
 326.01171875 -139.970703125 l 1
 355.368164062 227.463867188 l 1
 172.20703125 273.034179688 l 1
657.008789062 -43.771484375 m 1
 955.607421875 -137.174804688 l 1
 832.68359375 221.76171875 l 1
 642.135742188 243.141601562 l 1
 657.008789062 -43.771484375 l 1
EndSplineSet
Validated: 524321
EndChar

StartChar: three
Encoding: 51 51 2
Width: 1000
VWidth: 0
HStem: 240.063 199.837<392.27 515.642>
VStem: 354.038 199.835<278.291 401.674>
LayerCount: 2
Fore
SplineSet
453.95703125 240.063476562 m 0
 398.77734375 240.063476562 354.037109375 284.790039062 354.038085938 339.982421875 c 0
 354.038085938 395.174804688 398.778320312 439.900390625 453.95703125 439.900390625 c 0
 509.135742188 439.900390625 553.873046875 395.172851562 553.873046875 339.982421875 c 0
 553.873046875 284.791015625 509.135742188 240.063476562 453.95703125 240.063476562 c 0
902.293945312 12.859375 m 2
 916.58984375 -1.4619140625 925.420898438 -21.197265625 925.421875 -43.0283203125 c 0
 925.421875 -86.6953125 890.05078125 -122.065429688 846.38671875 -122.065429688 c 0
 824.551757812 -122.065429688 804.791992188 -113.237304688 790.497070312 -98.9287109375 c 2
 666.94921875 26.009765625 l 1
 606.227539062 -15.265625 532.911132812 -39.39453125 453.955078125 -39.39453125 c 0
 244.436523438 -39.39453125 74.580078125 130.4609375 74.580078125 339.982421875 c 0
 74.580078125 549.50390625 244.436523438 719.360351562 453.95703125 719.360351562 c 0
 663.477539062 719.360351562 833.333984375 549.50390625 833.333984375 339.982421875 c 0
 833.333984375 266.625 812.489257812 198.142578125 776.43359375 140.098632812 c 1
 902.293945312 12.859375 l 2
146.328125 292.258789062 m 1
 166.95703125 158.196289062 273.123046875 52.34375 407.350585938 32.1982421875 c 1
 453.95703125 125.345703125 l 1
 500.5390625 32.2021484375 l 1
 634.780273438 52.359375 740.979492188 158.234375 761.592773438 292.314453125 c 1
 666.283203125 339.982421875 l 1
 761.592773438 387.649414062 l 1
 741.0234375 521.4453125 635.233398438 627.1640625 501.396484375 647.641601562 c 1
 453.955078125 552.783203125 l 1
 406.491210938 647.645507812 l 1
 272.670898438 627.1796875 166.9140625 521.483398438 146.328125 387.706054688 c 1
 241.751953125 339.983398438 l 1
 146.328125 292.258789062 l 1
EndSplineSet
Validated: 524321
EndChar

StartChar: four
Encoding: 52 52 3
Width: 1000
VWidth: 0
LayerCount: 2
Fore
SplineSet
522.916992188 279.166992188 m 0
 450 208.333007812 447.916992188 93.75 514.583007812 18.75 c 1
 385.416992188 -122.916992188 l 2
 372.916992188 -137.5 350 -137.5 335.416992188 -125 c 2
 129.166992188 62.5 l 2
 114.583007812 75 114.583007812 97.9169921875 127.083007812 112.5 c 2
 652.083007812 689.583007812 l 2
 664.583007812 704.166992188 687.5 704.166992188 702.083007812 691.666992188 c 2
 908.333007812 504.166992188 l 2
 922.916992188 491.666992188 922.916992188 468.75 910.416992188 454.166992188 c 2
 768.75 297.916992188 l 1
 695.833007812 352.083007812 589.583007812 345.833007812 522.916992188 279.166992188 c 0
625 631.25 m 0
 620.833007812 625 620.833007812 616.666992188 625 612.5 c 2
 672.916992188 568.75 l 2
 679.166992188 562.5 687.5 562.5 691.666992188 568.75 c 0
 697.916992188 575 697.916992188 583.333007812 691.666992188 587.5 c 2
 643.75 631.25 l 2
 637.5 637.5 629.166992188 637.5 625 631.25 c 0
537.5 533.333007812 m 0
 531.25 527.083007812 531.25 518.75 537.5 514.583007812 c 2
 585.416992188 470.833007812 l 2
 591.666992188 464.583007812 600 464.583007812 604.166992188 470.833007812 c 0
 610.416992188 477.083007812 610.416992188 485.416992188 604.166992188 489.583007812 c 2
 556.25 533.333007812 l 2
 550 539.583007812 541.666992188 539.583007812 537.5 533.333007812 c 0
250 83.3330078125 m 0
 254.166992188 87.5 254.166992188 95.8330078125 250 102.083007812 c 2
 202.083007812 145.833007812 l 2
 195.833007812 152.083007812 187.5 152.083007812 183.333007812 145.833007812 c 0
 177.083007812 139.583007812 177.083007812 131.25 183.333007812 127.083007812 c 2
 231.25 83.3330078125 l 2
 237.5 77.0830078125 245.833007812 77.0830078125 250 83.3330078125 c 0
337.5 179.166992188 m 0
 343.75 185.416992188 341.666992188 193.75 337.5 197.916992188 c 2
 289.583007812 241.666992188 l 2
 283.333007812 247.916992188 275 247.916992188 270.833007812 241.666992188 c 0
 264.583007812 235.416992188 264.583007812 227.083007812 270.833007812 222.916992188 c 2
 318.75 179.166992188 l 2
 325 172.916992188 333.333007812 172.916992188 337.5 179.166992188 c 0
427.083007812 277.083007812 m 0
 431.25 283.333007812 431.25 291.666992188 427.083007812 295.833007812 c 2
 379.166992188 339.583007812 l 2
 372.916992188 345.833007812 364.583007812 345.833007812 360.416992188 339.583007812 c 0
 354.166992188 333.333007812 354.166992188 325 360.416992188 320.833007812 c 2
 408.333007812 277.083007812 l 2
 414.583007812 270.833007812 422.916992188 270.833007812 427.083007812 277.083007812 c 0
447.916992188 435.416992188 m 0
 443.75 431.25 443.75 422.916992188 447.916992188 416.666992188 c 2
 495.833007812 372.916992188 l 2
 502.083007812 366.666992188 510.416992188 366.666992188 514.583007812 372.916992188 c 0
 520.833007812 379.166992188 520.833007812 387.5 514.583007812 391.666992188 c 2
 466.666992188 435.416992188 l 2
 460.416992188 441.666992188 452.083007812 441.666992188 447.916992188 435.416992188 c 0
858.333007812 -29.1669921875 m 2
 864.583007812 -35.4169921875 864.583007812 -47.9169921875 858.333007812 -56.25 c 0
 856.25 -60.4169921875 850 -62.5 845.833007812 -62.5 c 0
 841.666992188 -62.5 837.5 -60.4169921875 833.333007812 -56.25 c 2
 745.833007812 31.25 l 1
 685.416992188 -14.5830078125 602.083007812 -10.4169921875 547.916992188 43.75 c 2
 541.666992188 50 l 1
 489.583007812 110.416992188 491.666992188 200 547.916992188 256.25 c 0
 600 308.333007812 683.333007812 314.583007812 741.666992188 270.833007812 c 0
 747.916992188 266.666992188 752.083007812 262.5 758.333007812 256.25 c 0
 812.5 202.083007812 816.666992188 118.75 770.833007812 58.3330078125 c 1
 858.333007812 -29.1669921875 l 2
731.25 70.8330078125 m 0
 775 114.583007812 775 185.416992188 731.25 231.25 c 0
 725 235.416992188 720.833007812 239.583007812 714.583007812 243.75 c 0
 695.833007812 256.25 675 262.5 652.083007812 262.5 c 0
 589.583007812 262.5 539.583007812 212.5 539.583007812 150 c 0
 541.666992188 125 550 100 566.666992188 79.1669921875 c 0
 568.75 75 570.833007812 72.9169921875 572.916992188 70.8330078125 c 0
 616.666992188 27.0830078125 687.5 27.0830078125 731.25 70.8330078125 c 0
EndSplineSet
Validated: 524321
EndChar

StartChar: five
Encoding: 53 53 4
Width: 1000
VWidth: 0
HStem: -95.833 83.333<296.703 703.297> 70.833 83.334<166.667 833.333> 529.167 166.666<296.698 703.302> 529.167 83.333<166.667 291.667 708.333 833.333>
VStem: 83.333 83.334<154.167 529.167> 833.333 83.334<154.167 529.167>
LayerCount: 2
Fore
SplineSet
875 70.8330078125 m 2xdc
 125 70.8330078125 l 2
 102 70.8330078125 83.3330078125 89.5 83.3330078125 112.5 c 2
 83.3330078125 570.833007812 l 2
 83.3330078125 593.833007812 102 612.5 125 612.5 c 2
 291.666992188 612.5 l 1xdc
 291.666992188 654.166992188 l 2
 291.666992188 677.166992188 310.333007812 695.833007812 333.333007812 695.833007812 c 2
 666.666992188 695.833007812 l 2xec
 689.666992188 695.833007812 708.333007812 677.166992188 708.333007812 654.166992188 c 2
 708.333007812 612.5 l 1
 875 612.5 l 2
 898 612.5 916.666992188 593.833007812 916.666992188 570.833007812 c 2
 916.666992188 112.5 l 2
 916.666992188 89.5 898 70.8330078125 875 70.8330078125 c 2xdc
833.333007812 529.166992188 m 1
 166.666992188 529.166992188 l 1
 166.666992188 154.166992188 l 1
 833.333007812 154.166992188 l 1
 833.333007812 529.166992188 l 1
416.666992188 210.416992188 m 1
 416.666992188 480.416992188 l 1
 676.666992188 345.416992188 l 1
 416.666992188 210.416992188 l 1
333.333007812 -12.5 m 2
 666.666992188 -12.5 l 2
 689.663085938 -12.50390625 708.327148438 -31.169921875 708.327148438 -54.1669921875 c 0
 708.327148438 -77.1630859375 689.663085938 -95.830078125 666.666992188 -95.8330078125 c 2
 333.333007812 -95.8330078125 l 2
 310.336914062 -95.830078125 291.672851562 -77.1630859375 291.672851562 -54.1669921875 c 0
 291.672851562 -31.169921875 310.336914062 -12.50390625 333.333007812 -12.5 c 2
EndSplineSet
Validated: 524289
EndChar

StartChar: A
Encoding: 65 65 5
Width: 1000
VWidth: 0
HStem: 780 20G<442.518 511.806>
VStem: 35.9287 71.4287<77.1426 383.214> 372.571 71.4287<-75.9287 230.143> 513.143 71.4287<-75.9287 230.214> 849.786 71.4277<77.1426 383.214>
LayerCount: 2
Fore
SplineSet
107.357421875 383.213867188 m 1
 107.357421875 77.142578125 l 1
 372.571289062 -75.9287109375 l 1
 372.571289062 230.142578125 l 1
 107.357421875 383.213867188 l 1
35.9287109375 35.9287109375 m 1
 35.9287109375 506.928710938 l 1
 444 271.428710938 l 1
 444 -199.571289062 l 1
 35.9287109375 35.9287109375 l 1
584.571289062 230.213867188 m 1
 584.571289062 -75.9287109375 l 1
 849.786132812 77.142578125 l 1
 849.786132812 383.213867188 l 1
 584.571289062 230.142578125 l 1
 584.571289062 230.213867188 l 1
513.142578125 271.428710938 m 1
 921.213867188 506.928710938 l 1
 921.213867188 35.9287109375 l 1
 513.142578125 -199.571289062 l 1
 513.142578125 271.428710938 l 1
743.571289062 566.857421875 m 1
 477.213867188 717.428710938 l 1
 213.571289062 561.928710938 l 1
 479.928710938 411.428710938 l 1
 743.571289062 566.857421875 l 1
476.428710938 800 m 1
 886.428710938 568.213867188 l 1
 480.713867188 328.928710938 l 1
 70.7138671875 560.713867188 l 1
 476.428710938 800 l 1
EndSplineSet
Validated: 524293
EndChar

StartChar: B
Encoding: 66 66 6
Width: 1000
VWidth: 0
HStem: -123.135 96.6572<171.713 577.587 577.621 650.112> 96.1553 59.6611<294.905 591.713> 215.635 59.6611<294.905 591.713> 336.062 59.6631<294.905 591.713> 518.72 96.2949<239.296 713.915> 673.344 42.7139<376.669 872.683>
VStem: 77.4658 95.3672<-25.3564 452.828> 712.992 96.6328<37.5933 104.465 104.467 517.613> 872.683 42.7168<177.33 673.344>
LayerCount: 2
Fore
SplineSet
306.475585938 614.998046875 m 2
 306.474609375 614.998046875 l 1
 306.474609375 615.014648438 l 1
 811.1953125 613.642578125 l 1
 809.810546875 104.200195312 l 1
 809.625 104.200195312 l 1
 807.161132812 -19.1904296875 701.420898438 -120.895507812 577.62109375 -123.067382812 c 1
 577.586914062 -123.134765625 l 1
 75.423828125 -121.771484375 l 1
 76.78515625 379.770507812 l 1
 77.4658203125 379.768554688 l 1
 79.955078125 503.817382812 181.90234375 613.8203125 306.475585938 614.998046875 c 2
712.9921875 104.46484375 m 1
 712.794921875 104.466796875 l 1
 713.915039062 517.61328125 l 1
 306.208984375 518.719726562 l 2
 229.647460938 518.514648438 174.405273438 454.135742188 172.833007812 378.044921875 c 2
 172.833007812 378.046875 l 1
 171.712890625 -25.3564453125 l 1
 579.791992188 -26.4775390625 l 2
 654.014648438 -24.173828125 710.775390625 30.2578125 712.9921875 104.46484375 c 1
872.682617188 716.057617188 m 1
 915.399414062 716.057617188 l 1
 915.399414062 673.34375 l 1
 915.399414062 177.330078125 l 1
 872.682617188 177.330078125 l 1
 872.682617188 673.34375 l 1
 376.668945312 673.34375 l 1
 376.668945312 716.057617188 l 1
 872.682617188 716.057617188 l 1
294.905273438 155.81640625 m 1
 591.712890625 155.81640625 l 1
 591.712890625 96.1552734375 l 1
 294.905273438 96.1552734375 l 1
 294.905273438 155.81640625 l 1
294.905273438 275.295898438 m 1
 591.712890625 275.295898438 l 1
 591.712890625 215.634765625 l 1
 294.905273438 215.634765625 l 1
 294.905273438 275.295898438 l 1
294.905273438 395.725585938 m 1
 591.712890625 395.725585938 l 1
 591.712890625 336.0625 l 1
 294.905273438 336.0625 l 1
 294.905273438 395.725585938 l 1
EndSplineSet
Validated: 524293
EndChar

StartChar: C
Encoding: 67 67 7
Width: 1000
VWidth: 0
HStem: -42.2812 112.469<311.5 362.875 521.406 574.062> 529.812 112.469<426 477.938 636.031 688.5>
LayerCount: 2
Fore
SplineSet
688.5 529.8125 m 1
 636.03125 529.8125 l 1
 521.40625 70.1875 l 1
 574.0625 70.1875 l 1
 574.0625 -42.28125 l 1
 311.5 -42.28125 l 1
 311.5 70.1875 l 1
 362.875 70.1875 l 1
 477.9375 529.8125 l 1
 426 529.8125 l 1
 426 642.28125 l 1
 688.5 642.28125 l 1
 688.5 529.8125 l 1
EndSplineSet
Validated: 524289
EndChar

StartChar: K
Encoding: 75 75 8
Width: 1000
VWidth: 0
HStem: -192.197 53.292<152.555 206.854 793.116 847.414> -84.0967 53.1553<152.555 206.854 793.116 847.414> 780 20G<654.591 694.592>
VStem: 98.3799 160.821<-192.197 -151.777 -84.0967 -30.9414> 98.3799 54.1748<-138.905 -84.0967> 738.991 160.944<-198.832 -151.777 -84.4824 -37.4648> 847.414 52.5215<-145.564 -90.707>
LayerCount: 2
Fore
SplineSet
902.234375 572.368164062 m 1xe0
 323.973632812 -5.8916015625 l 1
 96.3427734375 221.751953125 l 1
 674.590820312 800 l 1
 902.234375 572.368164062 l 1xe0
645.217773438 713.78125 m 1
 616.340820312 684.780273438 l 1
 758.610351562 542.610351562 l 1
 787.524414062 571.473632812 l 1
 645.217773438 713.78125 l 1
558.489257812 626.916015625 m 1
 529.612304688 598.051757812 l 1
 614.94921875 512.677734375 l 1
 643.813476562 541.553710938 l 1
 558.489257812 626.916015625 l 1
471.748046875 540.1875 m 1
 442.883789062 511.323242188 l 1
 528.220703125 425.999023438 l 1
 557.084960938 454.862304688 l 1
 471.748046875 540.1875 l 1
385.01953125 453.458984375 m 1
 356.155273438 424.594726562 l 1
 441.467773438 339.2578125 l 1
 470.34375 368.122070312 l 1
 385.01953125 453.458984375 l 1
298.291015625 366.73046875 m 1
 269.426757812 337.853515625 l 1
 354.7890625 252.529296875 l 1
 383.627929688 281.393554688 l 1
 298.291015625 366.73046875 l 1
211.5625 280.001953125 m 1
 182.698242188 251.125 l 1
 324.967773438 108.818359375 l 1
 353.869140625 137.731445312 l 1
 211.5625 280.001953125 l 1
738.817382812 -84.482421875 m 1
 738.817382812 -37.46484375 l 1
 899.935546875 -37.46484375 l 1
 899.935546875 -198.83203125 l 1
 738.991210938 -198.83203125 l 1
 738.991210938 -151.77734375 l 1
 259.375 -151.77734375 l 1
 259.375 -192.197265625 l 1
 98.3798828125 -192.197265625 l 1
 98.3798828125 -30.94140625 l 1
 259.201171875 -30.94140625 l 1
 259.201171875 -84.482421875 l 1xf4
 738.817382812 -84.482421875 l 1
206.853515625 -138.905273438 m 1
 206.853515625 -84.0966796875 l 1
 152.5546875 -84.0966796875 l 1
 152.5546875 -138.905273438 l 1xe8
 206.853515625 -138.905273438 l 1
793.116210938 -90.70703125 m 1
 793.116210938 -145.564453125 l 1
 847.4140625 -145.564453125 l 1
 847.4140625 -90.70703125 l 1xe2
 793.116210938 -90.70703125 l 1
EndSplineSet
Validated: 524289
EndChar

StartChar: E
Encoding: 69 69 9
Width: 1000
VWidth: 0
HStem: -119.283 11.5801<846.973 893.939> 706.594 11.5781<92.5851 140.256>
LayerCount: 2
Fore
SplineSet
838.890625 74.7783203125 m 0
 839.461914062 73.931640625 840.053710938 73.072265625 840.62109375 72.23046875 c 0
 885.383789062 5.6962890625 932.458007812 -79.8984375 902.534179688 -109.822265625 c 0
 896.2578125 -116.099609375 887.1875 -119.283203125 875.577148438 -119.283203125 c 0
 830.73046875 -119.283203125 755.279296875 -72.9736328125 696.73046875 -31.5205078125 c 1
 651.272460938 -50.97265625 601.21875 -61.744140625 548.647460938 -61.744140625 c 0
 340.560546875 -61.744140625 171.872070312 106.946289062 171.872070312 315.029296875 c 0
 171.872070312 364.1484375 181.276367188 411.0703125 198.373046875 454.098632812 c 1
 179.038085938 479.241210938 161.451171875 503.536132812 145.899414062 526.655273438 c 0
 101.140625 593.189453125 54.0693359375 678.786132812 83.9912109375 708.71875 c 0
 90.2666015625 714.991210938 99.33203125 718.171875 110.939453125 718.171875 c 0
 158.059570312 718.171875 238.984375 667.029296875 298.57421875 624.126953125 c 0
 303.401367188 620.6484375 311.196289062 614.9453125 315.971679688 611.395507812 c 1
 380.03515625 661.760742188 460.833007812 691.802734375 548.6484375 691.802734375 c 0
 756.73046875 691.802734375 925.420898438 523.118164062 925.420898438 315.029296875 c 0
 925.420898438 223.717773438 892.932617188 139.9921875 838.890625 74.7783203125 c 0
861.739257812 217.721679688 m 1
 737.045898438 269.001953125 722.005859375 249.583984375 722.004882812 249.583984375 c 0
 718.236328125 247.446289062 712.051757812 244.102539062 708.200195312 242.119140625 c 1
 753.305664062 190.28515625 793.1015625 140.12890625 825.616210938 93.9892578125 c 1
 828.4140625 97.8203125 829.8984375 100.110351562 829.8984375 100.110351562 c 2
 873.224609375 164.6796875 861.739257812 217.721679688 861.739257812 217.721679688 c 1
381.481445312 599.826171875 m 1
 361.279296875 607.1953125 344.146484375 606.25 329.885742188 600.940429688 c 1
 407.005859375 542.342773438 493.364257812 466.063476562 576.620117188 382.803710938 c 0
 580.900390625 378.520507812 587.823242188 371.541992188 592.073242188 367.227539062 c 1
 588.278320312 391.016601562 600.470703125 411.084960938 643.286132812 414.08984375 c 0
 766.826171875 422.768554688 747.650390625 429.123046875 747.650390625 429.123046875 c 1
 610.5625 599.826171875 557.5 550.294921875 557.5 550.294921875 c 1
 571.642578125 476.0078125 508.845703125 495.455078125 508.845703125 495.455078125 c 1
 457.555664062 510.499023438 467.280273438 515.796875 510.618164062 546.755859375 c 0
 553.947265625 577.71484375 493.263671875 583.90625 493.263671875 583.90625 c 1
 436.1171875 544.991210938 418.63671875 560.907226562 418.63671875 560.907226562 c 1
 413.3203125 585.668945312 381.481445312 599.826171875 381.481445312 599.826171875 c 1
155.506835938 533.118164062 m 0
 169.838867188 511.8125 185.932617188 489.48828125 203.526367188 466.424804688 c 1
 227.008789062 519.876953125 262.546875 566.833984375 306.696289062 603.858398438 c 1
 301.689453125 607.561523438 296.72265625 611.19140625 291.80859375 614.729492188 c 0
 209.528320312 673.969726562 145.29296875 706.59375 110.939453125 706.59375 c 0
 102.513671875 706.59375 96.2021484375 704.552734375 92.1787109375 700.53125 c 0
 73.7294921875 682.077148438 97.40234375 619.493164062 155.506835938 533.118164062 c 0
698.124023438 62.078125 m 1
 691.9296875 21.3955078125 706.966796875 11.6728515625 706.969726562 11.6728515625 c 0
 757.796875 17.3896484375 799.032226562 60.525390625 818.229492188 84.3720703125 c 1
 785.087890625 131.68359375 744.0859375 183.374023438 697.448242188 236.831054688 c 1
 567.356445312 175.798828125 553.9609375 280.537109375 553.9609375 280.537109375 c 1
 453.123046875 250.473632812 493.264648438 327.408203125 493.264648438 327.408203125 c 1
 533.40625 360.131835938 571.64453125 328.297851562 571.64453125 328.297851562 c 1
 566.330078125 302.647460938 592.866210938 283.1875 592.866210938 283.1875 c 1
 635.6171875 258.8671875 653.181640625 275.077148438 657.850585938 281.158203125 c 0
 656.248046875 282.912109375 654.638671875 284.665039062 653.026367188 286.421875 c 0
 634.2578125 297.310546875 613.583007812 318.696289062 601.590820312 340.920898438 c 0
 592.512695312 350.29296875 577.658203125 365.388671875 568.43359375 374.616210938 c 0
 483.822265625 459.227539062 396.045898438 536.556640625 318.161132812 595.2890625 c 1
 287.547851562 577.009765625 273.58984375 539.67578125 273.58984375 539.67578125 c 2
 271.079101562 533.875976562 285.077148438 529.951171875 285.077148438 529.951171875 c 1
 294.801757812 529.951171875 321.350585938 544.984375 321.350585938 544.984375 c 1
 375.307617188 538.7890625 325.772460938 448.575195312 325.772460938 448.575195312 c 1
 285.077148438 362.784179688 349.639648438 340.678710938 349.639648438 340.678710938 c 1
 396.520507812 327.408203125 424.822265625 299.446289062 424.822265625 299.446289062 c 1
 429.2421875 263.532226562 459.319335938 230.125 459.319335938 230.125 c 1
 476.122070312 231.013671875 526.540039062 225.702148438 526.540039062 225.702148438 c 1
 606.130859375 211.555664062 622.944335938 169.094726562 622.944335938 169.094726562 c 1
 596.40625 139.91015625 622.0625 102.760742188 622.0625 102.760742188 c 1
 656.560546875 75.3466796875 698.124023438 62.078125 698.124023438 62.078125 c 1
894.34765625 -101.63671875 m 0
 912.790039062 -83.1923828125 889.139648438 -20.658203125 831.083984375 65.6591796875 c 1
 797.256835938 27.3740234375 755.764648438 -3.98046875 709.010742188 -26.0029296875 c 1
 784.419921875 -78.7939453125 843.233398438 -107.703125 875.576171875 -107.703125 c 0
 884.005859375 -107.703125 890.3203125 -105.663085938 894.34765625 -101.63671875 c 0
EndSplineSet
Validated: 524321
EndChar

StartChar: F
Encoding: 70 70 10
Width: 1000
VWidth: 0
HStem: 216.667 333.333<500 750> 573.875 59.458<472.833 625>
VStem: 166.667 83.333<-28.3018 628.302> 291.667 181.166<300 573.875>
LayerCount: 2
Fore
SplineSet
166.666992188 591.666992188 m 2
 166.666992188 614.666992188 185.166992188 633.333007812 208.333007812 633.333007812 c 0
 231.333007812 633.333007812 250 614.791992188 250 591.666992188 c 2
 250 8.3330078125 l 2
 250 -14.6669921875 231.5 -33.3330078125 208.333007812 -33.3330078125 c 0
 185.333007812 -33.3330078125 166.666992188 -14.7919921875 166.666992188 8.3330078125 c 2
 166.666992188 591.666992188 l 2
291.666992188 633.333007812 m 1
 625 633.333007812 l 1
 625 573.875 l 1
 472.833007812 573.875 l 1
 472.833007812 300 l 1
 291.666992188 300 l 1
 291.666992188 633.333007812 l 1
500 550 m 1
 833.333007812 550 l 1
 750 383.333007812 l 1
 833.333007812 216.666992188 l 1
 500 216.666992188 l 1
 500 550 l 1
EndSplineSet
Validated: 524289
EndChar

StartChar: H
Encoding: 72 72 11
Width: 1000
VWidth: 0
HStem: 685.541 61.9883<350.434 587.839>
VStem: 52.8584 61.1162<208.289 444.971> 821.941 61.3594<323.171 452.224>
LayerCount: 2
Fore
SplineSet
935.533203125 149.024414062 m 2
 952.47265625 138.952148438 950.703125 126.862304688 931.602539062 122.15234375 c 1
 931.602539062 122.15234375 837.940429688 98.974609375 771.653320312 71.4990234375 c 1
 870.803710938 -76.1396484375 l 2
 880.244140625 -90.2431640625 876.627929688 -109.63671875 862.74609375 -119.221679688 c 2
 829.446289062 -142.233398438 l 2
 815.537109375 -151.796875 796.436523438 -148.127929688 786.96875 -134.051757812 c 2
 687.7734375 13.6884765625 l 1
 636.063476562 -41.4814453125 573.018554688 -131.868164062 573.018554688 -131.868164062 c 2
 561.684570312 -148.057617188 549.498046875 -145.361328125 545.896484375 -125.896484375 c 2
 447.219726562 408.045898438 l 2
 443.626953125 427.514648438 454.512695312 435.208007812 471.444335938 425.134765625 c 2
 935.533203125 149.024414062 l 2
393.908203125 -25.607421875 m 0
 406.297851562 -29.7080078125 415.206054688 -41.6015625 415.03515625 -55.55859375 c 0
 414.8671875 -72.740234375 400.95703125 -86.52734375 384.00390625 -86.3349609375 c 0
 382.801757812 -86.310546875 381.637695312 -86.2099609375 380.4609375 -86.08984375 c 0
 378.56640625 -85.8232421875 376.735351562 -85.4140625 374.977539062 -84.830078125 c 0
 289.723632812 -64.9267578125 212.431640625 -17.962890625 154.435546875 49.8037109375 c 0
 87.7998046875 127.688476562 51.7197265625 227.467773438 52.8583984375 330.693359375 c 0
 53.4912109375 387.5859375 65.080078125 442.65625 87.3359375 494.404296875 c 0
 108.830078125 544.377929688 139.2890625 589.109375 177.880859375 627.384765625 c 0
 216.461914062 665.66015625 261.241210938 695.5390625 310.9609375 716.21875 c 0
 362.46484375 737.624023438 417.025390625 748.16015625 473.1171875 747.529296875 c 0
 529.208984375 746.872070312 583.540039062 735.125976562 634.544921875 712.53125 c 0
 683.815429688 690.758789062 727.91796875 659.861328125 765.633789062 620.712890625 c 0
 803.376953125 581.586914062 832.840820312 536.176757812 853.229492188 485.713867188 c 0
 869.901367188 444.4296875 879.903320312 401.177734375 883.034179688 356.762695312 c 0
 883.204101562 355.450195312 883.30078125 354.092773438 883.30078125 352.756835938 c 0
 883.30078125 352.611328125 883.32421875 352.466796875 883.30078125 352.295898438 c 0
 883.130859375 335.938476562 870.534179688 322.662109375 854.684570312 321.618164062 c 0
 853.909179688 321.54296875 853.106445312 321.51953125 852.28125 321.51953125 c 0
 851.504882812 321.54296875 850.727539062 321.59375 849.977539062 321.665039062 c 0
 849.565429688 321.69140625 849.125 321.739257812 848.712890625 321.787109375 c 0
 846.893554688 322.177734375 845.073242188 322.586914062 843.25390625 323 c 0
 832.40234375 326.545898438 824.249023438 335.985351562 822.353515625 347.563476562 c 0
 822.125976562 348.953125 821.94140625 351.223632812 821.94140625 352.630859375 c 0
 821.94140625 352.733398438 821.942382812 352.899414062 821.943359375 353.000976562 c 2
 821.943359375 353.559570312 l 1
 808.180664062 537.243164062 657.408203125 683.428710938 472.4375 685.541015625 c 0
 276.967773438 687.7265625 116.161132812 528.23828125 113.974609375 329.9921875 c 0
 112.10546875 160.213867188 228.014648438 13.2509765625 388.204101562 -24.3212890625 c 0
 389.813476562 -24.51953125 392.369140625 -25.095703125 393.908203125 -25.607421875 c 0
EndSplineSet
Validated: 524321
EndChar

StartChar: I
Encoding: 73 73 12
Width: 1000
VWidth: 0
HStem: -137.741 21G<948.385 959.999> -78.3691 84.5703<96.1684 446.172 641.292 787.263> 104.078 84.5723<190.374 385.356> 286.523 84.5723<190.374 446.172 641.292 785.917> 468.971 84.5723<190.374 628.618> 651.416 84.5723<96.1684 722.825>
VStem: 2.31738 84.5713<15.481 642.137> 184.764 206.203<109.688 183.04> 488.903 84.5098<74.0506 218.675> 732.104 84.5723<413.765 642.137> 853.735 84.6318<72.7138 218.675>
LayerCount: 2
Fore
SplineSet
409.49609375 6.201171875 m 2
 432.8125 6.201171875 451.782226562 -12.7666015625 451.782226562 -36.0830078125 c 0
 451.782226562 -59.3994140625 432.8125 -78.369140625 409.49609375 -78.369140625 c 2
 135.826171875 -78.369140625 l 2
 62.208984375 -78.369140625 2.3173828125 -18.478515625 2.3173828125 55.138671875 c 2
 2.3173828125 602.478515625 l 2
 2.3173828125 676.096679688 62.208984375 735.98828125 135.826171875 735.98828125 c 2
 683.16796875 735.98828125 l 2
 756.784179688 735.98828125 816.67578125 676.096679688 816.67578125 602.478515625 c 2
 816.67578125 450.440429688 l 2
 816.67578125 427.123046875 797.706054688 408.154296875 774.389648438 408.154296875 c 0
 751.073242188 408.154296875 732.103515625 427.123046875 732.103515625 450.440429688 c 2
 732.103515625 602.478515625 l 2
 732.103515625 629.463867188 710.150390625 651.416015625 683.166015625 651.416015625 c 2
 135.826171875 651.416015625 l 2
 108.841796875 651.416015625 86.888671875 629.463867188 86.888671875 602.478515625 c 2
 86.888671875 55.138671875 l 2
 86.888671875 28.154296875 108.841796875 6.201171875 135.826171875 6.201171875 c 2
 409.49609375 6.201171875 l 2
227.049804688 553.54296875 m 1
 591.943359375 553.54296875 l 2
 615.259765625 553.54296875 634.228515625 534.573242188 634.228515625 511.256835938 c 0
 634.228515625 487.940429688 615.259765625 468.970703125 591.943359375 468.970703125 c 2
 227.049804688 468.970703125 l 2
 203.733398438 468.970703125 184.763671875 487.940429688 184.763671875 511.256835938 c 0
 184.763671875 534.573242188 203.733398438 553.54296875 227.049804688 553.54296875 c 1
984.940429688 -63.4443359375 m 2
 1001.91113281 -80.4169921875 1001.91113281 -108.030273438 984.942382812 -125.001953125 c 0
 976.727539062 -133.216796875 965.805664062 -137.741210938 954.192382812 -137.741210938 c 0
 942.577148438 -137.741210938 931.657226562 -133.216796875 923.442382812 -125.002929688 c 2
 838.318359375 -39.8779296875 l 1
 800.88671875 -65.09375 757.995117188 -78.369140625 713.634765625 -78.369140625 c 0
 589.715820312 -78.369140625 488.903320312 22.4462890625 488.903320312 146.36328125 c 0
 488.903320312 270.28125 589.716796875 371.095703125 713.634765625 371.095703125 c 0
 837.552734375 371.095703125 938.3671875 270.28125 938.3671875 146.36328125 c 0
 938.3671875 102.030273438 925.073242188 59.13671875 899.817382812 21.677734375 c 1
 984.940429688 -63.4443359375 l 2
713.57421875 286.5234375 m 0
 636.288085938 286.5234375 573.413085938 223.646484375 573.413085938 146.362304688 c 0
 573.413085938 69.078125 636.290039062 6.201171875 713.57421875 6.201171875 c 0
 790.858398438 6.201171875 853.735351562 69.078125 853.735351562 146.362304688 c 0
 853.735351562 223.646484375 790.858398438 286.5234375 713.57421875 286.5234375 c 0
409.49609375 371.095703125 m 2
 432.8125 371.095703125 451.782226562 352.126953125 451.782226562 328.810546875 c 0
 451.782226562 305.4921875 432.8125 286.5234375 409.49609375 286.5234375 c 2
 227.049804688 286.5234375 l 2
 203.733398438 286.5234375 184.763671875 305.493164062 184.763671875 328.810546875 c 0
 184.763671875 352.126953125 203.733398438 371.095703125 227.049804688 371.095703125 c 2
 409.49609375 371.095703125 l 2
348.680664062 104.078125 m 2
 227.049804688 104.078125 l 2
 203.733398438 104.078125 184.763671875 123.046875 184.763671875 146.36328125 c 0
 184.763671875 169.6796875 203.733398438 188.650390625 227.049804688 188.650390625 c 2
 348.680664062 188.650390625 l 2
 371.997070312 188.650390625 390.966796875 169.6796875 390.966796875 146.36328125 c 0
 390.966796875 123.046875 371.997070312 104.078125 348.680664062 104.078125 c 2
EndSplineSet
Validated: 524321
EndChar

StartChar: L
Encoding: 76 76 13
Width: 1000
VWidth: 0
HStem: -148.147 214.018<1.15673 78.3271 137.534 173.88 734.01 811.193 870.399 947.582> -70.4521 58.627<215.967 303.144 387.055 540.534 604.075 732.76> 578.555 214.176<1.15673 78.3271 137.64 214.81 774.637 811.193 870.399 947.676> 656.197 58.8906<216.02 341.491 425.297 560.145 643.95 732.812> 780 20G<486.716 486.926>
VStem: 0 215.967<-147.032 -70.4521 -11.8252 24.415 579.774 656.25 715.088 791.618> 78.3271 59.3652<65.9756 153.995 237.116 388.902 453.926 578.555> 732.76 215.967<-147.032 -70.4521 -11.8252 64.7545 620.168 656.25 715.088 791.618> 811.193 59.2061<65.8701 193.712 276.886 408.889 492.062 578.555>
LayerCount: 2
Fore
SplineSet
486.715820312 797.629882812 m 2x08
 491.03515625 794.047851562 491.03515625 788.833007812 482.817382812 800 c 1
 486.715820312 797.629882812 l 2x08
919.176757812 578.501953125 m 2
 919.229492188 578.5546875 l 1
 870.399414062 578.5546875 l 1
 870.399414062 481.422851562 l 2
 870.440429688 481.008789062 870.47265625 480.336914062 870.47265625 479.920898438 c 0
 870.47265625 479.505859375 870.440429688 478.833007812 870.399414062 478.419921875 c 2
 870.399414062 65.8701171875 l 1xa480
 919.124023438 65.8701171875 l 2
 919.153320312 65.8701171875 919.200195312 65.8701171875 919.229492188 65.8701171875 c 0
 935.454101562 65.8701171875 948.668945312 52.7021484375 948.7265625 36.4775390625 c 2
 948.7265625 -118.754882812 l 2
 948.668945312 -134.979492188 935.454101562 -148.147460938 919.229492188 -148.147460938 c 0
 919.200195312 -148.147460938 919.153320312 -148.147460938 919.124023438 -148.147460938 c 2
 762.36328125 -148.147460938 l 2
 762.333984375 -148.147460938 762.287109375 -148.147460938 762.2578125 -148.147460938 c 0xa1
 746.033203125 -148.147460938 732.818359375 -134.979492188 732.759765625 -118.754882812 c 2
 732.759765625 -70.4521484375 l 1
 215.966796875 -70.4521484375 l 1x45
 215.966796875 -118.754882812 l 2
 215.909179688 -134.979492188 202.694335938 -148.147460938 186.46875 -148.147460938 c 0
 186.440429688 -148.147460938 186.392578125 -148.147460938 186.36328125 -148.147460938 c 2
 29.603515625 -148.147460938 l 2
 29.57421875 -148.147460938 29.5263671875 -148.147460938 29.4970703125 -148.147460938 c 0
 13.3017578125 -148.147460938 0.0869140625 -135.00390625 0 -118.807617188 c 2
 0 36.5830078125 l 2x85
 0.0576171875 52.8076171875 13.2724609375 65.9755859375 29.498046875 65.9755859375 c 0
 29.52734375 65.9755859375 29.57421875 65.9755859375 29.603515625 65.9755859375 c 2
 78.3271484375 65.9755859375 l 1
 78.3271484375 578.66015625 l 1x82
 29.603515625 578.66015625 l 2
 29.57421875 578.66015625 29.5263671875 578.66015625 29.4970703125 578.66015625 c 0
 13.3017578125 578.66015625 0.0869140625 591.8046875 0 608 c 2
 0 763.390625 l 2
 0.0869140625 779.586914062 13.3017578125 792.731445312 29.4970703125 792.731445312 c 0
 29.5263671875 792.731445312 29.57421875 792.731445312 29.603515625 792.73046875 c 2
 186.36328125 792.73046875 l 2xa4
 186.392578125 792.731445312 186.440429688 792.731445312 186.469726562 792.731445312 c 0
 202.665039062 792.731445312 215.879882812 779.586914062 215.966796875 763.390625 c 2
 215.966796875 715.087890625 l 1
 627.568359375 715.087890625 l 2
 628.810546875 715.288085938 630.83984375 715.451171875 632.098632812 715.451171875 c 0
 633.356445312 715.451171875 635.385742188 715.288085938 636.62890625 715.087890625 c 2
 732.865234375 715.087890625 l 1x14
 732.865234375 763.390625 l 2
 732.952148438 779.586914062 746.166992188 792.731445312 762.36328125 792.731445312 c 0
 762.392578125 792.731445312 762.439453125 792.731445312 762.46875 792.73046875 c 2
 919.229492188 792.73046875 l 2x24
 919.258789062 792.731445312 919.305664062 792.731445312 919.334960938 792.731445312 c 0
 935.53125 792.731445312 948.74609375 779.586914062 948.83203125 763.390625 c 2
 948.83203125 607.89453125 l 2
 948.774414062 591.669921875 935.559570312 578.501953125 919.334960938 578.501953125 c 0
 919.291015625 578.501953125 919.219726562 578.501953125 919.176757812 578.501953125 c 2
137.692382812 371.752929688 m 2x12
 137.692382812 237.116210938 l 1
 560.14453125 656.197265625 l 1
 425.296875 656.197265625 l 1
 142.696289062 375.756835938 l 2
 141.426757812 374.51171875 139.185546875 372.71875 137.692382812 371.752929688 c 2x12
186.416015625 578.5546875 m 2x20
 186.36328125 578.5546875 l 1
 137.639648438 578.5546875 l 1
 137.639648438 453.92578125 l 1
 341.491210938 656.25 l 1
 216.01953125 656.25 l 1
 216.01953125 607.89453125 l 2
 215.932617188 591.69921875 202.717773438 578.5546875 186.522460938 578.5546875 c 0
 186.493164062 578.5546875 186.4453125 578.5546875 186.416015625 578.5546875 c 2x20
137.692382812 153.995117188 m 1x82
 137.639648438 153.995117188 l 1
 137.534179688 153.995117188 l 1
 137.534179688 65.8701171875 l 1
 173.879882812 65.8701171875 l 1
 732.8125 620.16796875 l 1
 732.8125 656.25 l 1
 643.950195312 656.25 l 1
 137.692382812 153.995117188 l 1x82
811.193359375 276.885742188 m 1x4080
 811.193359375 408.888671875 l 1
 387.0546875 -11.8251953125 l 1
 521.955078125 -11.8251953125 l 2
 523.123046875 -9.6630859375 525.482421875 -6.5009765625 527.22265625 -4.7666015625 c 2
 811.193359375 276.885742188 l 1x4080
762.46875 65.8701171875 m 2x8080
 811.193359375 65.8701171875 l 1x8080
 811.193359375 193.711914062 l 1
 604.075195312 -11.8251953125 l 1
 732.865234375 -11.8251953125 l 1x4080
 732.865234375 36.4775390625 l 2
 732.922851562 52.7021484375 746.138671875 65.8701171875 762.36328125 65.8701171875 c 0
 762.392578125 65.8701171875 762.439453125 65.8701171875 762.46875 65.8701171875 c 2x8080
811.193359375 492.0625 m 1
 811.193359375 578.5546875 l 1
 774.63671875 578.5546875 l 1
 215.966796875 24.4150390625 l 1
 215.966796875 -11.8251953125 l 1
 303.143554688 -11.8251953125 l 1x6480
 811.193359375 492.0625 l 1
EndSplineSet
Validated: 524289
EndChar

StartChar: M
Encoding: 77 77 14
Width: 1000
VWidth: 0
HStem: -176.914 69.7715<70.8141 906.243> 730.086 69.7715<70.8141 906.243>
VStem: 0.142578 69.7715<-106.243 729.186> 418.743 139.543<137.058 276.571 346.371 485.886> 907.143 69.7715<-106.243 729.186>
LayerCount: 2
Fore
SplineSet
0.142578125 742.713867188 m 0
 0.142578125 774.256835938 25.7431640625 799.857421875 57.2861328125 799.857421875 c 2
 919.771484375 799.857421875 l 2
 951.314453125 799.857421875 976.9140625 774.256835938 976.9140625 742.713867188 c 2
 976.9140625 -119.771484375 l 2
 976.9140625 -151.314453125 951.314453125 -176.9140625 919.771484375 -176.9140625 c 2
 57.2861328125 -176.9140625 l 2
 25.7431640625 -176.9140625 0.142578125 -151.314453125 0.142578125 -119.771484375 c 2
 0.142578125 742.713867188 l 0
878.571289062 -107.142578125 m 1
 894.342773438 -107.142578125 907.142578125 -94.3427734375 907.142578125 -78.5712890625 c 2
 907.142578125 701.514648438 l 2
 907.142578125 717.286132812 894.342773438 730.0859375 878.571289062 730.0859375 c 2
 98.4853515625 730.0859375 l 2
 82.7138671875 730.0859375 69.9140625 717.286132812 69.9140625 701.514648438 c 2
 69.9140625 -78.5712890625 l 2
 69.9140625 -94.3427734375 82.7138671875 -107.142578125 98.4853515625 -107.142578125 c 2
 878.571289062 -107.142578125 l 1
418.743164062 346.37109375 m 1
 418.743164062 485.885742188 l 1
 284.45703125 485.885742188 l 1
 484.685546875 686.142578125 l 1
 684.942382812 485.885742188 l 1
 558.286132812 485.885742188 l 1
 558.286132812 346.37109375 l 1
 418.743164062 346.37109375 l 1
684.942382812 137.057617188 m 1
 684.942382812 137.028320312 l 1
 484.685546875 -63.228515625 l 1
 284.45703125 137.028320312 l 1
 418.743164062 137.028320312 l 1
 418.743164062 276.571289062 l 1
 558.286132812 276.571289062 l 1
 558.286132812 137.057617188 l 1
 684.942382812 137.057617188 l 1
EndSplineSet
Validated: 524293
EndChar

StartChar: N
Encoding: 78 78 15
Width: 1000
VWidth: 0
HStem: -28.5908 34.4814<171.407 792.153> 109.35 34.4863<334.946 447.294 473.787 688.698> 488.7 34.4824<309.349 489.331 516.265 663.102>
VStem: 136.921 34.4863<5.89062 557.668> 274.862 34.4863<167.104 316.267 338.712 488.7> 688.698 34.4824<143.836 328.046 350.75 465.432>
LayerCount: 2
Fore
SplineSet
688.698242188 109.349609375 m 1
 274.862304688 109.349609375 l 1
 274.862304688 523.182617188 l 1
 723.180664062 523.182617188 l 1
 723.180664062 109.349609375 l 1
 688.698242188 109.349609375 l 1
688.698242188 143.8359375 m 1
 688.698242188 328.045898438 l 1
 473.787109375 143.8359375 l 1
 688.698242188 143.8359375 l 1
688.698242188 350.75 m 1
 688.698242188 465.431640625 l 1
 334.946289062 143.8359375 l 1
 447.293945312 143.8359375 l 1
 436.07421875 156.926757812 l 1
 677.47265625 363.846679688 l 1
 688.698242188 350.75 l 1
688.698242188 488.700195312 m 1
 688.698242188 488.694335938 l 1
 688.693359375 488.700195312 l 1
 688.698242188 488.700195312 l 1
309.348632812 488.700195312 m 1
 309.348632812 338.711914062 l 1
 489.331054688 488.700195312 l 1
 309.348632812 488.700195312 l 1
309.348632812 316.266601562 m 1
 309.348632812 167.104492188 l 1
 663.1015625 488.701171875 l 1
 516.264648438 488.701171875 l 1
 527.3046875 475.451171875 l 1
 320.387695312 303.020507812 l 1
 309.348632812 316.266601562 l 1
309.348632812 143.841796875 m 1
 309.353515625 143.8359375 l 1
 309.348632812 143.8359375 l 1
 309.348632812 143.841796875 l 1
930.1015625 -11.3515625 m 1
 792.153320312 -97.56640625 l 1
 792.153320312 -28.5908203125 l 1
 136.920898438 -28.5908203125 l 1
 136.920898438 557.668945312 l 1
 67.9453125 557.668945312 l 1
 154.1640625 695.612304688 l 1
 240.375976562 557.66796875 l 1
 171.407226562 557.66796875 l 1
 171.407226562 5.890625 l 1
 792.154296875 5.890625 l 1
 792.154296875 74.86328125 l 1
 930.1015625 -11.3515625 l 1
EndSplineSet
Validated: 524289
EndChar

StartChar: O
Encoding: 79 79 16
Width: 1000
VWidth: 0
HStem: -200 77.3789<76.9561 260.671 371.048 1155.39> -179.492 35.3057<57.082 235.789 388.372 1176.53> 1.05664 35.3066<245.666 266.808 300 736.786 769.768 934.672 969.345 990.486> 57.5049 34.25<245.666 266.808 969.345 989.006> 239.112 34.0381<883.933 989.006> 298.309 33.8271<245.666 302.114 473.022 735.518> 524.102 33.4033<245.666 266.808 968.71 989.006> 578.646 36.998<245.666 266.808 299.789 735.94 769.768 934.884 968.71 989.852> 722.833 21.3535<807.822 823.352 952.543 968.71> 779.492 20.5078<22.6619 38.4775 807.822 823.352 953.18 968.71 1193.87 1208.92>
VStem: 0 76.9561<-122.833 722.833> 20.9307 36.1514<-143.764 744.187> 211.628 34.0381<36.3633 57.5049 91.7549 298.309 332.347 524.102 557.505 578.646> 266.808 33.1924<36.3633 57.5049 557.505 578.646> 302.114 34.0381<332.347 437.632> 735.94 33.8271<34.4609 75.4756 246.909 298.309 332.136 581.606> 934.672 34.6729<36.3633 57.5049 557.505 578.646> 989.006 33.8271<36.3633 57.5049 91.1201 239.112 410.582 524.947 557.505 578.646> 1155.39 77.167<-122.621 723.044>
LayerCount: 2
Fore
SplineSet
1005.70800781 379.704101562 m 1x3fcfe0
 946.509765625 379.5390625 891.954101562 331.802734375 883.932617188 273.150390625 c 2
 1005.70800781 273.150390625 l 2
 1005.76660156 273.150390625 1005.86132812 273.151367188 1005.91992188 273.151367188 c 0
 1015.25585938 273.151367188 1022.83300781 265.57421875 1022.83300781 256.23828125 c 0
 1022.83300781 256.237304688 1022.83300781 256.237304688 1022.83300781 256.236328125 c 2
 1022.83300781 17.970703125 l 2
 1022.83300781 17.9697265625 1022.83300781 17.9697265625 1022.83300781 17.96875 c 0
 1022.83300781 8.6328125 1015.25585938 1.0556640625 1005.91992188 1.0556640625 c 0
 1005.86132812 1.0556640625 1005.76660156 1.056640625 1005.70800781 1.056640625 c 2
 228.752929688 1.056640625 l 2
 228.694335938 1.056640625 228.599609375 1.0556640625 228.541015625 1.0556640625 c 0
 219.205078125 1.0556640625 211.627929688 8.6328125 211.627929688 17.96875 c 0
 211.627929688 17.9697265625 211.627929688 17.9697265625 211.627929688 17.970703125 c 2
 211.627929688 598.731445312 l 2
 211.627929688 598.731445312 211.627929688 598.732421875 211.627929688 598.732421875 c 0
 211.627929688 608.069335938 219.205078125 615.646484375 228.541015625 615.646484375 c 0
 228.599609375 615.646484375 228.694335938 615.645507812 228.752929688 615.64453125 c 2
 1005.70800781 615.64453125 l 2
 1005.76660156 615.645507812 1005.86132812 615.646484375 1005.91992188 615.646484375 c 0
 1015.25585938 615.646484375 1022.83300781 608.069335938 1022.83300781 598.732421875 c 0
 1022.83300781 598.732421875 1022.83300781 598.731445312 1022.83300781 598.731445312 c 2
 1022.83300781 396.829101562 l 2
 1022.83300781 387.375976562 1015.16113281 379.704101562 1005.70800781 379.704101562 c 1x3fcfe0
968.709960938 578.646484375 m 1
 968.709960938 557.504882812 l 1
 989.8515625 557.504882812 l 1
 989.8515625 578.646484375 l 1
 968.709960938 578.646484375 l 1
245.666015625 578.646484375 m 1
 245.666015625 557.504882812 l 1
 266.807617188 557.504882812 l 1
 266.807617188 578.646484375 l 1
 245.666015625 578.646484375 l 1
245.666015625 524.1015625 m 1
 245.666015625 332.346679688 l 1
 302.114257812 332.346679688 l 1
 302.114257812 456.025390625 l 2
 302.114257812 456.025390625 302.114257812 456.026367188 302.114257812 456.026367188 c 0
 302.114257812 465.36328125 309.69140625 472.940429688 319.02734375 472.940429688 c 0
 319.0859375 472.940429688 319.180664062 472.939453125 319.239257812 472.938476562 c 0
 397.192382812 472.739257812 467.091796875 409.66015625 475.264648438 332.135742188 c 2
 735.940429688 332.135742188 l 1
 735.940429688 581.606445312 l 1
 299.7890625 581.606445312 l 1
 299.7890625 541.2265625 l 1
 299.7890625 541.16796875 299.790039062 541.073242188 299.790039062 541.014648438 c 0
 299.790039062 531.678710938 292.212890625 524.1015625 282.876953125 524.1015625 c 0
 282.875976562 524.1015625 282.875976562 524.1015625 282.875 524.1015625 c 2
 245.666015625 524.1015625 l 1
266.807617188 36.36328125 m 1
 266.807617188 57.5048828125 l 1
 245.666015625 57.5048828125 l 1
 245.666015625 36.36328125 l 1
 266.807617188 36.36328125 l 1
736.786132812 34.2490234375 m 1
 735.940429688 75.4755859375 l 1
 612.684570312 75.4755859375 l 2
 603.348632812 75.4755859375 595.771484375 83.052734375 595.771484375 92.388671875 c 0
 595.76953125 92.6689453125 595.768554688 93.1220703125 595.768554688 93.40234375 c 0
 595.768554688 132.06640625 619.069335938 184.462890625 647.780273438 210.359375 c 1
 668.475585938 229.067382812 707.782226562 246.68359375 735.517578125 249.682617188 c 2
 735.517578125 298.30859375 l 1
 458.5625 298.30859375 l 2
 458.502929688 298.307617188 458.405273438 298.307617188 458.345703125 298.307617188 c 0
 449.243164062 298.307617188 441.85546875 305.6953125 441.85546875 314.797851562 c 0
 441.85546875 314.915039062 441.857421875 315.104492188 441.860351562 315.221679688 c 0
 441.860351562 315.234375 441.860351562 315.25390625 441.860351562 315.265625 c 0
 441.860351562 374.243164062 394.502929688 429.0625 336.15234375 437.631835938 c 2
 336.15234375 315.221679688 l 2
 336.15234375 305.885742188 328.575195312 298.30859375 319.239257812 298.30859375 c 1
 245.666015625 298.30859375 l 1
 245.666015625 91.7548828125 l 1
 282.875 91.7548828125 l 2
 282.93359375 91.755859375 283.028320312 91.755859375 283.086914062 91.755859375 c 0
 292.422851562 91.755859375 300 84.1787109375 300 74.8427734375 c 0
 300 74.8427734375 300 74.841796875 300 74.841796875 c 2
 300 34.2490234375 l 1
 736.786132812 34.2490234375 l 1
990.486328125 36.36328125 m 1
 990.486328125 57.5048828125 l 1
 969.344726562 57.5048828125 l 1
 969.344726562 36.36328125 l 1
 990.486328125 36.36328125 l 1
848.836914062 256.236328125 m 0
 848.836914062 256.267578125 848.836914062 256.317382812 848.836914062 256.34765625 c 0
 848.836914062 334.194335938 911.6328125 404.328125 989.005859375 412.896484375 c 2
 989.005859375 524.947265625 l 1
 951.796875 524.947265625 l 2
 951.796875 524.947265625 951.795898438 524.947265625 951.795898438 524.947265625 c 0
 942.459960938 524.947265625 934.8828125 532.524414062 934.8828125 541.860351562 c 0
 934.8828125 541.918945312 934.8828125 542.013671875 934.883789062 542.072265625 c 2
 934.883789062 581.606445312 l 1
 769.767578125 581.606445312 l 1
 769.767578125 232.135742188 l 2
 769.767578125 222.798828125 762.190429688 215.221679688 752.854492188 215.221679688 c 0
 693.984375 215.12890625 639.333984375 167.771484375 630.8671875 109.513671875 c 2
 752.642578125 109.513671875 l 2
 762.095703125 109.513671875 769.767578125 101.841796875 769.767578125 92.388671875 c 2
 769.767578125 34.4609375 l 1
 934.671875 34.4609375 l 1
 934.671875 73.99609375 l 2
 934.671875 74.0537109375 934.670898438 74.1484375 934.670898438 74.20703125 c 0
 934.670898438 83.54296875 942.248046875 91.1201171875 951.583984375 91.1201171875 c 0
 951.584960938 91.1201171875 951.584960938 91.1201171875 951.5859375 91.1201171875 c 2
 989.005859375 91.1201171875 l 1
 989.005859375 239.112304688 l 1
 865.750976562 239.112304688 l 2
 865.75 239.112304688 865.75 239.112304688 865.749023438 239.112304688 c 0
 856.413085938 239.112304688 848.8359375 246.689453125 848.8359375 256.025390625 c 0
 848.8359375 256.083984375 848.836914062 256.178710938 848.836914062 256.236328125 c 0
226.215820312 -143.763671875 m 2
 235.7890625 -143.876953125 243.650390625 -151.73828125 243.763671875 -161.310546875 c 0
 243.763671875 -170.997070312 235.90234375 -178.858398438 226.215820312 -178.858398438 c 2
 38.4775390625 -178.858398438 l 2
 28.7919921875 -178.858398438 20.9306640625 -170.997070312 20.9306640625 -161.310546875 c 2
 20.9306640625 761.733398438 l 2
 20.9306640625 761.734375 20.9306640625 761.734375 20.9306640625 761.735351562 c 0
 20.9306640625 771.421875 28.7919921875 779.376953125 38.4775390625 779.4921875 c 2
 807.822265625 779.4921875 l 2
 817.508789062 779.376953125 825.370117188 771.421875 825.370117188 761.735351562 c 0
 825.370117188 761.734375 825.370117188 761.734375 825.370117188 761.733398438 c 0
 825.370117188 752.046875 817.508789062 744.186523438 807.822265625 744.186523438 c 2
 57.08203125 744.186523438 l 1
 57.08203125 -143.763671875 l 1x3fdfe0
 226.215820312 -143.763671875 l 2
226.215820312 -200 m 1xbfefe0
 38.4775390625 -200 l 2
 17.2373046875 -200 -0.0009765625 -182.76171875 -0.0009765625 -161.522460938 c 0
 -0.0009765625 -161.463867188 -0 -161.369140625 0 -161.310546875 c 2
 0 761.310546875 l 2
 -0 761.369140625 -0.0009765625 761.463867188 -0.0009765625 761.522460938 c 0
 -0.0009765625 782.76171875 17.2373046875 800 38.4775390625 800 c 0
 807.822265625 800 l 2
 827.6015625 798.53515625 843.653320312 781.249023438 843.653320312 761.416015625 c 0
 843.653320312 741.583007812 827.6015625 724.297851562 807.822265625 722.833007812 c 2
 76.9560546875 722.833007812 l 1
 76.9560546875 -122.833007812 l 1
 226.215820312 -122.833007812 l 2
 247.572265625 -122.833007812 264.905273438 -140.166015625 264.905273438 -161.522460938 c 0
 264.905273438 -182.87890625 247.572265625 -200.2109375 226.215820312 -200.2109375 c 2
 226.215820312 -200 l 1xbfefe0
1193.86914062 779.069335938 m 2
 1203.55859375 778.956054688 1211.51464844 771 1211.62792969 761.310546875 c 2
 1211.62792969 -161.733398438 l 2
 1211.62792969 -171.536132812 1203.671875 -179.4921875 1193.86914062 -179.4921875 c 1
 405.919921875 -179.4921875 l 2
 396.233398438 -179.376953125 388.372070312 -171.421875 388.372070312 -161.735351562 c 0
 388.372070312 -161.734375 388.372070312 -161.734375 388.372070312 -161.733398438 c 0
 388.372070312 -152.046875 396.233398438 -144.186523438 405.919921875 -144.186523438 c 2
 1176.53320312 -144.186523438 l 1x7fcfe0
 1176.53320312 743.763671875 l 1
 968.709960938 743.763671875 l 2
 959.024414062 743.763671875 951.163085938 751.625 951.163085938 761.310546875 c 0
 951.163085938 761.311523438 951.163085938 761.311523438 951.163085938 761.3125 c 0
 951.163085938 770.999023438 959.024414062 778.954101562 968.709960938 779.069335938 c 2
 1193.86914062 779.069335938 l 2
1194.08007812 -200 m 2xbfcfe0
 405.919921875 -200 l 2
 384.563476562 -200 367.23046875 -182.666992188 367.23046875 -161.310546875 c 0
 367.23046875 -139.954101562 384.563476562 -122.62109375 405.919921875 -122.62109375 c 2
 1155.39160156 -122.62109375 l 1
 1155.39160156 723.043945312 l 1
 968.709960938 723.043945312 l 2
 948.931640625 724.509765625 932.87890625 741.794921875 932.87890625 761.627929688 c 0
 932.87890625 781.4609375 948.931640625 798.74609375 968.709960938 800.2109375 c 2
 1194.08007812 800.2109375 l 2
 1215.09082031 800.09765625 1232.32910156 782.954101562 1232.55859375 761.9453125 c 2
 1232.55859375 -161.310546875 l 2
 1232.55859375 -161.310546875 1232.55859375 -161.311523438 1232.55859375 -161.311523438 c 0
 1232.55859375 -182.551757812 1215.3203125 -199.883789062 1194.08007812 -200 c 2xbfcfe0
EndSplineSet
Validated: 524293
EndChar

StartChar: P
Encoding: 80 80 17
Width: 1000
VWidth: 0
HStem: -41.1338 38.8242<423.963 457.323 582.467 610.031> 260.028 79.9453<59.3349 151.268 151.271 173.354 191.311 260.447 739.551 808.689 823.999 848.688 848.693 940.663> 602.164 38.8057<389.685 417.151 542.338 575.745> 725.037 20G<488.962 511.039>
VStem: 158.989 38.8115<223.493 256.813 382.008 409.626> 460.025 79.9463<-140.664 -48.6736 -48.6689 -30.7148 -8.68848 60.4475 539.553 608.688 633.452 648.627 648.632 740.664> 802.273 38.8193<190.092 217.702 343.526 376.78>
LayerCount: 2
Fore
SplineSet
191.310546875 260.028320312 m 1
 192.5546875 250.318359375 195.461914062 234.723632812 197.80078125 225.21875 c 1
 158.989257812 215.649414062 l 1
 156.185546875 227.03515625 152.764648438 245.723632812 151.352539062 257.364257812 c 1
 173.353515625 260.028320312 l 1
 94.935546875 260.028320312 l 2
 72.8583984375 260.028320312 54.9619140625 277.924804688 54.9619140625 300.000976562 c 0
 54.9619140625 322.077148438 72.8583984375 339.973632812 94.935546875 339.973632812 c 2
 151.049804688 339.973632812 l 2
 151.125976562 340.634765625 151.193359375 341.297851562 151.271484375 341.958007812 c 2
 167.922851562 339.973632812 l 1
 224.846679688 339.973632812 l 2
 246.922851562 339.973632812 264.8203125 322.078125 264.8203125 300.000976562 c 0
 264.8203125 277.924804688 246.922851562 260.028320312 224.846679688 260.028320312 c 2
 191.310546875 260.028320312 l 1
224.455078125 155.133789062 m 1
 189.090820312 136.5 l 1
 183.625976562 146.876953125 175.803710938 164.1953125 171.629882812 175.155273438 c 1
 208.9921875 189.369140625 l 1
 212.6875 179.662109375 219.615234375 164.32421875 224.455078125 155.133789062 c 1
336.916015625 -11.126953125 m 1
 355.505859375 24.2607421875 l 1
 364.705078125 19.4306640625 380.056640625 12.521484375 389.7734375 8.8388671875 c 1
 375.61328125 -28.5419921875 l 1
 364.641601562 -24.3828125 347.3046875 -16.5810546875 336.916015625 -11.126953125 c 1
208.786132812 410.0859375 m 1
 205.112304688 400.366210938 200.125 384.286132812 197.654296875 374.192382812 c 1
 158.826171875 383.686523438 l 1
 161.616210938 395.086914062 167.248046875 413.249023438 171.3984375 424.227539062 c 1
 208.786132812 410.0859375 l 1
355 575.474609375 m 1
 345.815429688 570.625 331.43359375 561.889648438 322.897460938 555.974609375 c 1
 300.124023438 588.825195312 l 1
 309.755859375 595.5 325.984375 605.358398438 336.348632812 610.829101562 c 1
 355 575.474609375 l 1
224.19140625 444.364257812 m 1
 188.793945312 462.932617188 l 1
 194.244140625 473.31640625 204.072265625 489.580078125 210.73046875 499.234375 c 1
 243.631835938 476.533203125 l 1
 237.731445312 467.978515625 229.021484375 453.56640625 224.19140625 444.364257812 c 1
425.0703125 602.1640625 m 1
 414.989257812 599.670898438 398.930664062 594.6484375 389.225585938 590.954101562 c 1
 374.995117188 628.30859375 l 1
 385.958007812 632.481445312 404.095703125 638.154296875 415.482421875 640.969726562 c 1
 425.0703125 602.1640625 l 1
539.971679688 -27.9677734375 m 1
 542.467773438 -48.6689453125 l 2
 541.637695312 -48.7685546875 540.803710938 -48.85546875 539.971679688 -48.9501953125 c 2
 539.971679688 -105.064453125 l 2
 539.971679688 -127.141601562 522.075195312 -145.037109375 499.998046875 -145.037109375 c 0
 477.921875 -145.037109375 460.025390625 -127.141601562 460.025390625 -105.064453125 c 2
 460.025390625 -30.71484375 l 1
 457.874023438 -48.7099609375 l 1
 446.23046875 -47.3154296875 427.536132812 -43.921875 416.145507812 -41.1337890625 c 1
 425.661132812 -2.3095703125 l 1
 435.046875 -4.6044921875 450.44140625 -7.4619140625 460.025390625 -8.6884765625 c 1
 460.025390625 24.84765625 l 2
 460.025390625 46.9248046875 477.921875 64.8203125 499.998046875 64.8203125 c 0
 522.075195312 64.8203125 539.971679688 46.9248046875 539.971679688 24.84765625 c 2
 539.971679688 -27.9677734375 l 1
775.40234375 445.134765625 m 1
 810.749023438 463.801757812 l 1
 816.224609375 453.430664062 824.063476562 436.12109375 828.247070312 425.1640625 c 1
 790.901367188 410.915039062 l 1
 787.1953125 420.618164062 780.251953125 435.94921875 775.40234375 445.134765625 c 1
775.66796875 155.370117188 m 1
 811.047851562 136.765625 l 1
 805.586914062 126.387695312 795.743164062 110.134765625 789.075195312 100.487304688 c 1
 756.1953125 123.217773438 l 1
 762.104492188 131.768554688 770.828125 146.171875 775.66796875 155.370117188 c 1
791.109375 189.631835938 m 1
 794.791992188 199.34765625 799.79296875 215.422851562 802.2734375 225.513671875 c 1
 841.092773438 215.983398438 l 1
 838.29296875 204.584960938 832.642578125 186.427734375 828.481445312 175.453125 c 1
 791.109375 189.631835938 l 1
644.732421875 24.384765625 m 1
 653.921875 29.224609375 668.3125 37.947265625 676.854492188 43.8544921875 c 1
 699.59765625 10.982421875 l 1
 689.958007812 4.31640625 673.719726562 -5.525390625 663.350585938 -10.9873046875 c 1
 644.732421875 24.384765625 l 1
541.787109375 648.749023438 m 1
 553.431640625 647.366210938 572.127929688 643.991210938 583.520507812 641.21484375 c 1
 574.046875 602.380859375 l 1
 564.740234375 604.646484375 549.474609375 607.47265625 539.973632812 608.688476562 c 1
 539.973632812 575.15234375 l 2
 539.973632812 553.076171875 522.077148438 535.1796875 500.000976562 535.1796875 c 0
 477.923828125 535.1796875 460.02734375 553.076171875 460.02734375 575.15234375 c 2
 460.02734375 625.318359375 l 1
 457.193359375 648.626953125 l 2
 458.135742188 648.741210938 459.083007812 648.842773438 460.02734375 648.94921875 c 2
 460.02734375 705.064453125 l 2
 460.02734375 727.140625 477.923828125 745.037109375 500.000976562 745.037109375 c 0
 522.077148438 745.037109375 539.973632812 727.140625 539.973632812 705.064453125 c 2
 539.973632812 633.452148438 l 1
 541.787109375 648.749023438 l 1
574.633789062 -2.2373046875 m 1
 584.717773438 0.2470703125 600.78125 5.25390625 610.490234375 8.939453125 c 1
 624.68359375 -28.4306640625 l 1
 613.717773438 -32.591796875 595.575195312 -38.2470703125 584.186523438 -41.052734375 c 1
 574.633789062 -2.2373046875 l 1
624.068359375 628.663085938 m 1
 635.043945312 624.514648438 652.38671875 616.729492188 662.78125 611.287109375 c 1
 644.229492188 575.87890625 l 1
 635.024414062 580.69921875 619.665039062 587.59375 609.9453125 591.268554688 c 1
 624.068359375 628.663085938 l 1
277.172851562 466.297851562 m 1
 185.310546875 558.16015625 l 2
 169.700195312 573.770507812 169.700195312 599.079101562 185.310546875 614.689453125 c 0
 200.920898438 630.299804688 226.23046875 630.299804688 241.840820312 614.689453125 c 2
 333.702148438 522.828125 l 2
 349.3125 507.217773438 349.3125 481.908203125 333.702148438 466.297851562 c 0
 325.897460938 458.4921875 315.666015625 454.58984375 305.4375 454.58984375 c 0
 295.20703125 454.58984375 284.978515625 458.4921875 277.172851562 466.297851562 c 1
333.701171875 133.704101562 m 0
 349.311523438 118.09375 349.311523438 92.783203125 333.700195312 77.173828125 c 2
 310.002929688 53.4775390625 l 1
 313.614257812 50.6865234375 319.58984375 46.3154296875 323.341796875 43.71875 c 1
 300.626953125 10.8291015625 l 1
 295.225585938 14.564453125 286.671875 20.9169921875 281.533203125 25.0078125 c 1
 241.83984375 -14.6875 l 2
 234.03515625 -22.4931640625 223.803710938 -26.3955078125 213.57421875 -26.3955078125 c 0
 203.344726562 -26.3955078125 193.115234375 -22.4931640625 185.309570312 -14.6875 c 0
 169.69921875 0.9228515625 169.69921875 26.2314453125 185.309570312 41.841796875 c 2
 225.004882812 81.537109375 l 1
 220.990234375 86.5791015625 214.751953125 94.9697265625 211.079101562 100.265625 c 1
 243.94140625 123.0234375 l 1
 246.479492188 119.362304688 250.750976562 113.532226562 253.475585938 110.0078125 c 1
 277.171875 133.704101562 l 2
 292.782226562 149.314453125 318.090820312 149.314453125 333.701171875 133.704101562 c 0
722.82421875 133.702148438 m 1
 814.686523438 41.83984375 l 2
 830.296875 26.2294921875 830.296875 0.9208984375 814.686523438 -14.689453125 c 0
 806.881835938 -22.4951171875 796.651367188 -26.3974609375 786.420898438 -26.3974609375 c 0
 776.19140625 -26.3974609375 765.961914062 -22.4951171875 758.15625 -14.689453125 c 2
 666.294921875 77.171875 l 2
 650.684570312 92.7822265625 650.684570312 118.091796875 666.294921875 133.702148438 c 0
 681.905273438 149.3125 707.213867188 149.3125 722.82421875 133.702148438 c 1
905.063476562 339.970703125 m 2
 927.140625 339.970703125 945.037109375 322.075195312 945.036132812 299.998046875 c 0
 945.036132812 277.920898438 927.139648438 260.025390625 905.0625 260.025390625 c 2
 848.94921875 260.025390625 l 2
 848.862304688 259.251953125 848.78125 258.475585938 848.688476562 257.704101562 c 2
 829.356445312 260.025390625 l 1
 775.151367188 260.025390625 l 2
 753.07421875 260.025390625 735.177734375 277.920898438 735.177734375 299.998046875 c 0
 735.177734375 322.07421875 753.07421875 339.970703125 775.151367188 339.970703125 c 2
 808.689453125 339.970703125 l 1
 807.435546875 349.763671875 804.497070312 365.491210938 802.12890625 375.076171875 c 1
 840.930664062 384.682617188 l 1
 843.745117188 373.299804688 847.184570312 354.615234375 848.607421875 342.975585938 c 1
 823.999023438 339.970703125 l 1
 905.063476562 339.970703125 l 2
666.298828125 466.295898438 m 0
 650.688476562 481.90625 650.688476562 507.215820312 666.298828125 522.826171875 c 2
 689.99609375 546.522460938 l 1
 686.319335938 549.365234375 680.231445312 553.814453125 676.407226562 556.454101562 c 1
 699.092773438 589.366210938 l 1
 704.575195312 585.58203125 713.254882812 579.143554688 718.466796875 574.994140625 c 1
 758.16015625 614.6875 l 2
 773.770507812 630.297851562 799.080078125 630.297851562 814.690429688 614.6875 c 0
 830.30078125 599.077148438 830.30078125 573.768554688 814.690429688 558.158203125 c 2
 774.99609375 518.46484375 l 1
 778.951171875 513.497070312 785.102539062 505.233398438 788.725585938 500.018554688 c 1
 755.88671875 477.225585938 l 1
 753.392578125 480.814453125 749.198242188 486.53515625 746.525390625 489.993164062 c 1
 722.828125 466.295898438 l 2
 715.0234375 458.490234375 704.793945312 454.587890625 694.563476562 454.587890625 c 0
 684.333984375 454.587890625 674.104492188 458.490234375 666.298828125 466.295898438 c 0
EndSplineSet
Validated: 524321
EndChar

StartChar: Q
Encoding: 81 81 18
Width: 1000
VWidth: 0
VStem: 62.5 31.8115<22.2598 226.462> 262 31.8145<361.072 570.36> 275.486 31.8174<-65.7842 138.498> 474.958 31.8457<280.706 482.394> 484.044 31.8184<19.9404 221.728> 683.544 31.8164<363.84 569.242> 697.032 31.8154<-70.5137 133.77> 905.584 31.8184<15.2041 220.614>
LayerCount: 2
Fore
SplineSet
937.40234375 9.923828125 m 2xc5
 937.40234375 9.25390625 937.34765625 8.59765625 937.26953125 7.9501953125 c 0
 938.416015625 1.1484375 935.059570312 -5.8662109375 928.561523438 -9.0380859375 c 2
 720.078125 -110.33203125 l 2
 718.280273438 -111.209960938 715.197265625 -111.921875 713.197265625 -111.921875 c 0
 713.173828125 -111.921875 713.135742188 -111.921875 713.112304688 -111.921875 c 0
 711.09765625 -111.91796875 707.989257812 -111.206054688 706.173828125 -110.33203125 c 2
 497.694335938 -9.0380859375 l 2
 497.624023438 -9.005859375 497.559570312 -8.9658203125 497.4921875 -8.931640625 c 2
 298.536132812 -105.6015625 l 2
 296.737304688 -106.479492188 293.65234375 -107.192382812 291.651367188 -107.192382812 c 0
 291.627929688 -107.192382812 291.58984375 -107.192382812 291.56640625 -107.192382812 c 0
 289.1796875 -107.192382812 286.828125 -106.650390625 284.627929688 -105.6015625 c 2
 76.1484375 -4.3037109375 l 2
 75.1171875 -3.798828125 73.576171875 -2.77734375 72.7099609375 -2.0244140625 c 0
 66.744140625 0.26953125 62.5 6.0419921875 62.5 12.8095703125 c 2
 62.5 248.045898438 l 2
 62.5 248.047851562 62.5 248.05078125 62.5 248.052734375 c 0
 62.5 251.331054688 64.2509765625 255.995117188 66.408203125 258.463867188 c 0
 67.7529296875 260.94140625 70.9052734375 263.943359375 73.4462890625 265.1640625 c 2
 262.043945312 355.603515625 l 2
 262.017578125 355.969726562 262 356.33984375 262 356.711914062 c 2
 262 591.948242188 l 2
 262 591.950195312 262 591.954101562 262 591.95703125 c 0
 262 595.1875 263.705078125 599.80078125 265.805664062 602.25390625 c 0
 267.16015625 604.779296875 270.357421875 607.830078125 272.944335938 609.064453125 c 2
 484.198242188 710.362304688 l 2
 488.5859375 712.431640625 493.677734375 712.461914062 498.034179688 710.330078125 c 2
 706.515625 609.032226562 l 2
 711.451171875 606.635742188 715.45703125 600.23828125 715.45703125 594.751953125 c 0
 715.45703125 594.1796875 715.396484375 593.254882812 715.322265625 592.688476562 c 0
 715.333984375 592.440429688 715.360351562 592.198242188 715.360351562 591.948242188 c 2
 715.360351562 363.122070312 l 2
 716.723632812 362.9375 718.8359375 362.30078125 720.07421875 361.700195312 c 2
 928.557617188 260.40234375 l 2
 933.493164062 258.004882812 937.499023438 251.607421875 937.499023438 246.12109375 c 0
 937.499023438 245.548828125 937.438476562 244.625 937.364257812 244.057617188 c 0
 937.375976562 243.809570312 937.40234375 243.568359375 937.40234375 243.318359375 c 2
 937.40234375 9.923828125 l 2xc5
506.803710938 277.950195312 m 1x95
 683.543945312 363.83984375 l 1
 683.543945312 569.2421875 l 1
 504.717773438 482.393554688 l 1
 506.803710938 277.950195312 l 1x95
491.038085938 678.326171875 m 1
 316.627929688 594.713867188 l 1
 491.038085938 511.106445312 l 1
 663.154296875 594.713867188 l 1
 491.038085938 678.326171875 l 1
293.81640625 570.360351562 m 1
 293.814453125 570.360351562 l 1
 293.814453125 367.8515625 l 2xd1
 295.178710938 367.66796875 297.29296875 367.030273438 298.532226562 366.4296875 c 2
 474.958007812 280.706054688 l 1
 472.879882812 484.494140625 l 1
 293.81640625 570.360351562 l 1
94.3115234375 22.259765625 m 1
 275.486328125 -65.7841796875 l 1xa1
 273.379882812 140.59375 l 1
 94.3115234375 226.461914062 l 1
 94.3115234375 22.259765625 l 1
291.534179688 167.206054688 m 1
 461.0078125 249.534179688 l 1
 288.889648438 333.16015625 l 1
 117.124023438 250.818359375 l 1
 291.534179688 167.206054688 l 1
305.217773438 138.498046875 m 1
 307.303710938 -65.9482421875 l 1
 484.043945312 19.9404296875 l 1
 484.043945312 225.34765625 l 1xa9
 305.217773438 138.498046875 l 1
515.862304688 17.5224609375 m 1
 697.032226562 -70.513671875 l 1x8b
 694.92578125 135.864257812 l 1
 515.862304688 221.727539062 l 1
 515.862304688 17.5224609375 l 1
713.078125 162.475585938 m 1
 885.194335938 246.083984375 l 1
 713.078125 329.696289062 l 1
 538.66796875 246.083984375 l 1
 713.078125 162.475585938 l 1
905.5859375 15.2041015625 m 1
 905.583984375 15.2041015625 l 1
 905.583984375 220.614257812 l 1
 726.76171875 133.76953125 l 1
 728.84765625 -70.677734375 l 1
 905.5859375 15.2041015625 l 1
EndSplineSet
Validated: 524293
EndChar

StartChar: R
Encoding: 82 82 19
Width: 1000
VWidth: 0
HStem: -27.9385 163.388<846.455 990.349> 12.9082 81.6953<132.557 295.945 336.793 760.139> 257.992 40.8477<132.556 295.945>
VStem: 10.0146 163.389<534.322 625.618> 50.8613 81.6943<94.6035 257.992 298.84 462.229> 295.945 40.8477<94.6035 257.992>
LayerCount: 2
Fore
SplineSet
846.454101562 135.450195312 m 1x74
 846.455078125 135.44921875 l 1
 990.348632812 135.44921875 l 1
 990.348632812 -27.9384765625 l 1
 826.959960938 -27.9384765625 l 1xb4
 826.959960938 12.908203125 l 1
 50.861328125 12.908203125 l 1
 50.861328125 462.229492188 l 1x6c
 10.0146484375 462.229492188 l 1
 10.0146484375 625.618164062 l 1
 173.403320312 625.618164062 l 1
 173.403320312 534.322265625 l 1
 846.454101562 135.450195312 l 1x74
132.555664062 94.603515625 m 1x6c
 132.556640625 94.603515625 l 1
 295.9453125 94.603515625 l 1
 295.9453125 257.9921875 l 1
 132.555664062 257.9921875 l 1
 132.555664062 94.603515625 l 1x6c
336.79296875 257.9921875 m 1
 336.79296875 94.603515625 l 1
 760.138671875 94.603515625 l 1
 139.801757812 462.228515625 l 1
 132.555664062 462.228515625 l 1
 132.555664062 298.83984375 l 1
 336.79296875 298.83984375 l 1
 336.79296875 257.9921875 l 1
EndSplineSet
Validated: 524289
EndChar

StartChar: T
Encoding: 84 84 20
Width: 1000
VWidth: 0
HStem: -82.3125 48.6543<231.96 377.916 621.182 767.137> 39.3203 48.6543<61.6777 377.916 621.182 937.417> 189.956 116.848<817.664 921.486> 219.164 58.4268<61.5303 271.331 688.292 836.489> 550.17 48.6523<61.6777 937.417>
VStem: 13.0234 48.6543<87.9736 219.164 277.591 550.17> 937.417 48.6533<87.9746 550.17>
LayerCount: 2
Fore
SplineSet
986.0703125 39.3203125 m 1xce
 986.071289062 39.3203125 l 1
 621.181640625 39.3203125 l 1
 621.181640625 -33.658203125 l 1
 767.13671875 -33.658203125 l 1
 767.13671875 -82.3125 l 1
 231.959960938 -82.3125 l 1
 231.959960938 -33.658203125 l 1
 377.916015625 -33.658203125 l 1
 377.916015625 39.3203125 l 1
 13.0234375 39.3203125 l 1
 13.0234375 598.822265625 l 1
 986.0703125 598.822265625 l 1
 986.0703125 39.3203125 l 1xce
61.677734375 87.9736328125 m 1
 61.677734375 87.974609375 l 1
 937.416992188 87.974609375 l 1
 937.416992188 550.169921875 l 1
 61.677734375 550.169921875 l 1
 61.677734375 87.9736328125 l 1
61.677734375 87.9736328125 m 1024
869.543945312 306.803710938 m 2xee
 869.544921875 306.803710938 l 2
 906.709960938 306.803710938 936.86328125 280.709960938 936.86328125 248.381835938 c 0
 936.86328125 216.180664062 906.708984375 189.956054688 869.54296875 189.956054688 c 0xee
 844.64453125 189.956054688 823.159179688 201.8203125 811.505859375 219.1640625 c 1
 646.666015625 219.1640625 l 1
 609.408203125 283.7578125 l 1
 531.67578125 36.2548828125 l 1
 465.666015625 41.275390625 l 1
 415.52734375 520.017578125 l 1
 323.0859375 219.1640625 l 1
 61.5302734375 219.1640625 l 1
 61.5302734375 277.590820312 l 1
 271.331054688 277.590820312 l 1xde
 399.341796875 694.087890625 l 1
 465.36328125 689.219726562 l 1
 515.79296875 207.907226562 l 1
 590.8515625 446.740234375 l 1
 688.291992188 277.58984375 l 1
 811.506835938 277.58984375 l 1
 823.14453125 294.995117188 844.64453125 306.803710938 869.543945312 306.803710938 c 2xee
869.543945312 306.803710938 m 1024
EndSplineSet
Validated: 524293
EndChar

StartChar: U
Encoding: 85 85 21
Width: 1000
VWidth: 0
HStem: -70.5215 63.3496<207.315 292.067 457.024 541.896 706.911 791.668> -12.9512 63.2539<82.6894 167.165 332.146 416.971 581.99 666.828 831.812 916.569> 93.7188 63.3809<244.973 308.711 469.422 554.298 719.31 815.135> 151.314 63.2539<95.0919 179.569 344.564 429.37 594.717 678.992 880.298 928.969>
LayerCount: 2
Fore
SplineSet
511.798828125 93.71875 m 0x20
 488.734375 93.71875 466.923828125 101.013671875 448.724609375 114.8203125 c 2
 411.662109375 142.984375 l 2
 404.666015625 148.35546875 395.908203125 151.31640625 387.005859375 151.31640625 c 0
 379.405273438 151.303710938 368.317382812 147.5703125 362.255859375 142.984375 c 2
 325.0703125 114.822265625 l 2
 306.771484375 101.041015625 284.98046875 93.755859375 262.056640625 93.755859375 c 0
 239.134765625 93.755859375 217.341796875 101.04296875 199.033203125 114.83203125 c 2
 161.859375 142.98828125 l 2
 154.8671875 148.35546875 146.109375 151.314453125 137.205078125 151.314453125 c 0
 129.602539062 151.301757812 118.512695312 147.568359375 112.451171875 142.98046875 c 2
 63.880859375 106.177734375 l 2
 59.2275390625 102.629882812 50.7021484375 99.75 44.8515625 99.75 c 0
 44.8330078125 99.75 44.8037109375 99.75 44.78515625 99.75 c 0
 34.76171875 99.75 25.544921875 104.326171875 19.50390625 112.306640625 c 0
 8.958984375 126.232421875 11.70703125 146.140625 25.62890625 156.685546875 c 2
 74.212890625 193.501953125 l 2
 92.515625 207.283203125 114.306640625 214.568359375 137.2265625 214.568359375 c 0x10
 160.1484375 214.568359375 181.943359375 207.28125 200.255859375 193.490234375 c 2
 237.421875 165.330078125 l 2
 244.4296875 160.021484375 253.201171875 157.099609375 262.123046875 157.099609375 c 0
 271.044921875 157.099609375 279.81640625 160.021484375 286.822265625 165.328125 c 2
 324.013671875 193.5 l 2
 342.1796875 207.3125 363.94140625 214.615234375 386.94921875 214.615234375 c 0
 409.6484375 214.615234375 432.052734375 207.115234375 450.033203125 193.5 c 2
 487.22265625 165.330078125 l 2
 494.23046875 160.021484375 503.00390625 157.099609375 511.923828125 157.099609375 c 0x20
 520.84375 157.099609375 529.6171875 160.021484375 536.623046875 165.328125 c 2
 573.810546875 193.501953125 l 2
 591.7890625 207.1171875 614.193359375 214.615234375 636.892578125 214.615234375 c 0
 659.572265625 214.615234375 681.923828125 207.119140625 699.822265625 193.5078125 c 2
 737.029296875 165.328125 l 2
 744.015625 159.962890625 752.7734375 157.001953125 761.67578125 157.001953125 c 0
 770.5703125 157.001953125 779.36328125 159.9609375 786.431640625 165.333984375 c 2
 823.60546875 193.501953125 l 2
 841.908203125 207.283203125 863.701171875 214.568359375 886.623046875 214.568359375 c 0x10
 909.544921875 214.568359375 931.3359375 207.28125 949.64453125 193.490234375 c 2
 986.818359375 165.330078125 l 2
 992.620117188 160.962890625 998.106445312 151.575195312 999.064453125 144.376953125 c 0
 999.227539062 143.19921875 999.359375 141.278320312 999.359375 140.08984375 c 0
 999.359375 134.19921875 996.442382812 125.631835938 992.84765625 120.96484375 c 0
 986.7890625 112.96875 977.572265625 108.388671875 967.548828125 108.388671875 c 0
 967.53125 108.388671875 967.502929688 108.388671875 967.485351562 108.388671875 c 0
 961.630859375 108.388671875 953.102539062 111.26953125 948.447265625 114.8203125 c 2
 911.26171875 142.990234375 l 2
 904.2734375 148.35546875 895.513671875 151.31640625 886.611328125 151.31640625 c 0
 879.008789062 151.303710938 867.918945312 147.5703125 861.857421875 142.982421875 c 2
 824.669921875 114.822265625 l 2
 806.37109375 101.041015625 784.58203125 93.755859375 761.658203125 93.755859375 c 0
 738.734375 93.755859375 716.94140625 101.04296875 698.630859375 114.83203125 c 2
 661.462890625 142.98828125 l 2
 655.4296875 147.532226562 644.404296875 151.220703125 636.850585938 151.220703125 c 0
 636.827148438 151.220703125 636.7890625 151.220703125 636.765625 151.220703125 c 0
 636.73828125 151.220703125 636.6953125 151.220703125 636.66796875 151.220703125 c 0
 629.127929688 151.220703125 618.118164062 147.54296875 612.091796875 143.01171875 c 2
 574.87890625 114.8203125 l 2
 556.66796875 101.015625 534.857421875 93.71875 511.798828125 93.71875 c 0x20
499.396484375 -70.548828125 m 0
 476.33984375 -70.548828125 454.529296875 -63.255859375 436.322265625 -49.453125 c 2
 399.263671875 -21.28515625 l 2
 392.267578125 -15.9140625 383.5078125 -12.951171875 374.60546875 -12.951171875 c 0x40
 367.002929688 -12.9638671875 355.9140625 -16.6982421875 349.853515625 -21.287109375 c 2
 312.669921875 -49.451171875 l 2
 294.37109375 -63.234375 272.58203125 -70.521484375 249.66015625 -70.521484375 c 0x80
 226.740234375 -70.521484375 204.943359375 -63.232421875 186.630859375 -49.44140625 c 2
 149.45703125 -21.28125 l 2
 142.466796875 -15.912109375 133.708984375 -12.951171875 124.806640625 -12.951171875 c 0
 117.204101562 -12.9638671875 106.115234375 -16.6982421875 100.0546875 -21.287109375 c 2
 51.4765625 -58.091796875 l 2
 46.8251953125 -61.6376953125 38.302734375 -64.515625 32.453125 -64.515625 c 0
 32.4345703125 -64.515625 32.4052734375 -64.515625 32.38671875 -64.515625 c 0
 22.359375 -64.515625 13.142578125 -59.939453125 7.09765625 -51.958984375 c 0
 -3.447265625 -38.037109375 -0.697265625 -18.125 13.23046875 -7.568359375 c 2
 61.80859375 29.232421875 l 2
 80.109375 43.015625 101.900390625 50.302734375 124.822265625 50.302734375 c 0x40
 147.744140625 50.302734375 169.5390625 43.013671875 187.84765625 29.220703125 c 2
 225.0234375 1.0625 l 2
 232.033203125 -4.248046875 240.8046875 -7.171875 249.720703125 -7.171875 c 0
 258.63671875 -7.171875 267.408203125 -4.248046875 274.419921875 1.0625 c 2
 311.611328125 29.23046875 l 2
 329.51953125 42.849609375 351.87109375 50.34765625 374.552734375 50.34765625 c 0
 397.251953125 50.34765625 419.654296875 42.84765625 437.634765625 29.23046875 c 2
 474.822265625 1.0625 l 2
 481.83203125 -4.248046875 490.60546875 -7.171875 499.5234375 -7.171875 c 0x80
 508.443359375 -7.171875 517.21484375 -4.248046875 524.22265625 1.064453125 c 2
 561.40625 29.232421875 l 2
 579.38671875 42.84765625 601.7890625 50.34765625 624.486328125 50.34765625 c 0
 647.1640625 50.34765625 669.51953125 42.8515625 687.427734375 29.23828125 c 2
 724.625 1.0625 l 2
 731.6171875 -4.3046875 740.376953125 -7.263671875 749.279296875 -7.263671875 c 0
 758.17578125 -7.263671875 766.96484375 -4.302734375 774.03125 1.0703125 c 2
 811.205078125 29.232421875 l 2
 829.5078125 43.015625 851.298828125 50.302734375 874.22265625 50.302734375 c 0x40
 897.146484375 50.302734375 918.9375 43.013671875 937.244140625 29.220703125 c 2
 974.427734375 1.0625 l 2
 980.227539062 -3.302734375 985.7109375 -12.685546875 986.66796875 -19.880859375 c 0
 987.802734375 -28.25390625 985.591796875 -36.572265625 980.443359375 -43.3046875 c 0
 974.38671875 -51.30078125 965.171875 -55.880859375 955.1484375 -55.880859375 c 0
 955.130859375 -55.880859375 955.102539062 -55.880859375 955.083984375 -55.880859375 c 0
 949.23046875 -55.880859375 940.702148438 -53 936.046875 -49.451171875 c 2
 898.859375 -21.279296875 l 2
 891.873046875 -15.91015625 883.115234375 -12.94921875 874.212890625 -12.94921875 c 0
 866.609375 -12.9619140625 855.518554688 -16.6953125 849.455078125 -21.283203125 c 2
 812.271484375 -49.44921875 l 2
 793.970703125 -63.232421875 772.181640625 -70.51953125 749.259765625 -70.51953125 c 0
 726.337890625 -70.51953125 704.54296875 -63.23046875 686.232421875 -49.439453125 c 2
 649.0625 -21.279296875 l 2
 641.859375 -15.890625 633.322265625 -13.046875 624.36328125 -13.046875 c 0
 615.404296875 -13.046875 606.87109375 -15.884765625 599.693359375 -21.255859375 c 2
 562.4765625 -49.451171875 l 2
 544.267578125 -63.25390625 522.45703125 -70.548828125 499.396484375 -70.548828125 c 0
402.01171875 657.716796875 m 1
 968.890625 448.978515625 l 1
 865.208984375 149.91796875 l 1
 844.912109375 157.076171875 820.376953125 160.212890625 798.5234375 162.982421875 c 1
 887.345703125 411.35546875 l 1
 439.375 576.380859375 l 1
 306.806640625 159.052734375 l 1
 279.779296875 156.34375 252.640625 143.392578125 224.244140625 119.61328125 c 1
 402.01171875 657.716796875 l 1
479.54296875 410.82421875 m 1
 501.6875 470.931640625 l 1
 588.66015625 438.90234375 l 1
 566.513671875 378.791015625 l 1
 479.54296875 410.82421875 l 1
774.453125 370.509765625 m 1
 752.32421875 310.412109375 l 1
 665.34765625 342.435546875 l 1
 687.474609375 402.533203125 l 1
 774.453125 370.509765625 l 1
548.349609375 326.685546875 m 1
 526.212890625 266.578125 l 1
 439.2421875 298.609375 l 1
 461.37890625 358.716796875 l 1
 548.349609375 326.685546875 l 1
733.189453125 263.90234375 m 1
 711.060546875 203.798828125 l 1
 624.09375 235.818359375 l 1
 646.22265625 295.921875 l 1
 733.189453125 263.90234375 l 1
EndSplineSet
Validated: 524325
EndChar
